/* XPM */
static char *exit1[] = {
/* columns rows colors chars-per-pixel */
"50 50 147 2 ",
"   c #161616",
".  c #1A1917",
"X  c #121518",
"o  c #181718",
"O  c #191918",
"+  c #241D17",
"@  c #281F17",
"#  c #231E19",
"$  c #2C2016",
"%  c #2B2119",
"&  c #352516",
"*  c #3B2716",
"=  c #3D2916",
"-  c #372A1C",
";  c #38291C",
":  c #232323",
">  c #292827",
",  c #2C2C2C",
"<  c #333434",
"1  c #3C3C3C",
"2  c #432B15",
"3  c #4B2F15",
"4  c #4E3015",
"5  c #533315",
"6  c #593514",
"7  c #5F3814",
"8  c #5D3B1B",
"9  c #623914",
"0  c #693C13",
"q  c #623F1F",
"w  c #47392C",
"e  c #493B2E",
"r  c #473B31",
"t  c #754213",
"y  c #794413",
"u  c #4B4035",
"i  c #434343",
"p  c #4A4A4A",
"a  c #4E4F50",
"s  c #545454",
"d  c #5B5855",
"f  c #5D5B58",
"g  c #765C44",
"h  c #786049",
"j  c #62605E",
"k  c #5F6061",
"l  c #646464",
"z  c #676869",
"x  c #6F6F6F",
"c  c #78736E",
"v  c #747474",
"b  c #7D7873",
"n  c #7D7C7B",
"m  c #834813",
"M  c #8A4C12",
"N  c #975211",
"B  c #9B5412",
"V  c #A15611",
"C  c #A45811",
"Z  c #A95A11",
"A  c #B45F10",
"S  c #BD630F",
"D  c #B66010",
"F  c #BD6310",
"G  c #BF6919",
"H  c #C06614",
"J  c #C26D1E",
"K  c #C26F22",
"L  c #C37125",
"P  c #C5762D",
"I  c #C7782E",
"U  c #C67A34",
"Y  c #C97C35",
"T  c #C37D3C",
"R  c #CB813D",
"E  c #B78B61",
"W  c #B88B61",
"Q  c #BA916B",
"!  c #CB8545",
"~  c #C98649",
"^  c #CA894D",
"/  c #D18B4A",
"(  c #D3965E",
")  c #D99F6A",
"_  c #D6A06E",
"`  c #CFA37A",
"'  c #D9A575",
"]  c #D2A479",
"[  c #DDAA7B",
"{  c #858481",
"}  c #8B8C8C",
"|  c #9F968D",
" . c #969595",
".. c #9A9A9A",
"X. c #A69B91",
"o. c #A89D93",
"O. c #BCA48E",
"+. c #A7A09A",
"@. c #A9A199",
"#. c #B2A295",
"$. c #9FA0A0",
"%. c #A2A2A3",
"&. c #A8A5A3",
"*. c #ACAAA8",
"=. c #BAAFA5",
"-. c #AFB0B1",
";. c #B4B4B4",
":. c #C3A180",
">. c #CAA686",
",. c #D4AA83",
"<. c #DEB187",
"1. c #DEB188",
"2. c #DCB591",
"3. c #D2B89F",
"4. c #E4B993",
"5. c #C1B6AB",
"6. c #D4C3B4",
"7. c #D9C5B3",
"8. c #DBCAB9",
"9. c #E4C3A4",
"0. c #EAC7A7",
"q. c #EBC8A7",
"w. c #E2C5AB",
"e. c #E7C9AC",
"r. c #ECC9A9",
"t. c #C5C2C1",
"y. c #C8C6C4",
"u. c #CBC9C7",
"i. c #C8C8C8",
"p. c #D1CBC7",
"a. c #D6D0CB",
"s. c #D5D2D0",
"d. c #D8D7D7",
"f. c #DBDBDA",
"g. c #E9D6C5",
"h. c #ECDAC9",
"j. c #F0DAC6",
"k. c #E7DBD1",
"l. c #E9DDD3",
"z. c #E1DEDC",
"x. c #F4E0CE",
"c. c #E1E0DF",
"v. c #F1E1D1",
"b. c #F0E5DB",
"n. c #E3E4E4",
"m. c #ECE7E3",
"M. c #F9F9F9",
/* pixels */
"M.n.;.v <             . . .   . . . . .     .   . .   . . . o . . . . . . . . . . .   . X , v ;.n.M.",
"..} v p : + 2 6 9 9 9 9 9 9 9 9 9 9 9 9 9 9 9 9 9 9 9 9 9 9 9 9 9 9 7 7 7 7 9 9 7 7 5 2 + > p x } ..",
"O O % # @ 3 m C A A Z Z Z Z Z Z Z Z C Z Z Z Z Z Z Z Z Z Z Z C Z Z Z Z Z Z Z C Z A A C m 4 $ $ . . O ",
"o # ; 9 M V A A B y 5 * * * * * * 2 * * = * * * * = = = * = = * = = * * = = = 4 y B A D C M 9 2 % X ",
"X + 3 y C A B m 0 3 @ + & 3 4 5 5 5 5 5 5 5 5 5 5 5 5 5 5 5 5 5 4 5 5 4 2 & $ % 3 0 m B A C y 3 % X ",
"X + 3 y C B 6 & + . + * 0 B Z A A A A A A A A A A A A A A A A A D D D A N t - . . + & 6 B C y 3 # X ",
"X + 3 y C N 5 & & 4 t N Z A S S S S S S F S S S F S S S S S S S S S S D D C N y 4 & & 5 N C y 3 + X ",
"X + 3 y C N 5 & 2 0 V S S S F S F F F S F F F F F F S F F F F F S S S S S S S B 0 2 & 5 N C y 3 + X ",
"X + 3 y C N 5 & 2 0 V S S S F F F F F F F F F F F F F F F F F F S S S F S S S C t 2 & 5 B C t 3 + X ",
"X + 3 y C N 5 * 2 0 V S S S F F F F F F F F F F F S F F F F F F S S F S S F S V t = & 5 N C t 3 + X ",
"X + 3 y C N 5 & 2 0 V S S S F F F F F F F F F F F F F F F F F F S S S S S F F C 7 * $ 3 y M t & + X ",
"X + 3 y C N 5 & 2 0 V S S F F F F F G F F F F F F F F F F G F F S G F F F F F C t * $ . $ $ + . . X ",
"X + 3 y C N 5 * 2 0 V S S F K ! _ 1.1.1.<.<.<.<.<.<.1.1.1.1.1.1.<._ R L G S S V t = + X O O X O o o ",
"X + 3 y C N 5 & 2 0 V H J I ~ ] 8.f.f.n.c.c.c.c.z.z.n.f.c.c.c.c.c.8.] ^ I G F V 7 & + X X O O O o o ",
"X + 3 y C N 5 & 2 0 V Y [ 9.6.o.l i i i i i i i i i i i i i i i i j @.6.w.[ P V t = . O O O O O   o ",
"X + 3 y C N 5 * w g E ` O.o.} z < . o . o   o   o o   X o o o o . < l } X.O.` E g u % $ 3 4 * % . o ",
"X : 3 y B N 8 u d } i.6.n p > o . o o o o O o o O o X X . O X . X O O , p n 6.i.} f r 8 N B t 4 + X ",
"X % 3 y Z T ` =.&.} z i < : O o o o o . O o O o o O O O O . O o O O X O : < p j } &.=.O.~ Z y 4 + X ",
"X . 3 y Z / e.k.t.} 1 X   X o o O o o o o O o o O O O O . X o O O O O O X   X 1 } t.k.9./ Z t 3 + X ",
"X $ 3 y Z / e.v.y.} 1 X   . o o o O o o O o o o o O O O o O O . O X O X O X X 1 } 6.l.r./ Z t 4 . X ",
"X $ 3 t Z / e.v.t.} 1 X O O O o O O O o O o o o O o O o O . O O O O X X X X X 1 } t.l.q./ Z t 4 $ X ",
"X . 4 t Z R >.=.*.} k 1 , : O X o o O o o O o o . O o . O X O . O X O : : , i k } *.;.>.R Z t 4 + X ",
"X $ 3 t C B q u f } i.t.n i : o o o o O o O o o O O . X . X X . X X X X i n 6.i.} f u q B C y 4 + X ",
"X $ 4 t C N 5 - u h Q >.O.| { k < o       o o o . X . X . . . X X < k Q | #.` Q h r - 4 N C y 4 + X ",
"X . 3 y C N 5 & 2 t B R [ w.6.@.j 1 1 1 1 , : O X . o : , < 1 1 1 j @.6.w.[ R C t = & 5 N V t 3 + X ",
"X $ 3 y C N 5 & = 0 V S L I ^ ` 6.f.f.f.i...p : X . : p ..i.d.z.f.7.` ^ R L F V 9 3 & 5 N Z y 4 + X ",
"X $ 3 y C B 5 & = 0 V S S S L ! ' 9.j.b.c.-.s : . . : s -.c.b.j.9.' ! L S S S V t * & 5 N Z y 4 + X ",
"X . 3 t C B 5 & = t V S S S S G L ! ,.7.p.$.a : . X : a &.p.7.,.~ L G F S S S V t = & 5 N V t 3 + X ",
"X + 4 y C N 5 & = t B S D G P ( 9.7.X.c a < > O O X O % < a c X.7.9.( L S S S V 9 3 & 5 N C t 4 . X ",
"X $ 4 t V N 5 & = 9 V S S F R ' x.z. .d %   X O O O O X   > d  .f.v.' R S S S V 9 = & 5 N C y 4 $ X ",
"X + 4 t C N 5 & = t V S S G R ] h.s.} s > X   X O O .   X : s } s.h.' R G G S V t = & 5 N C t 3 + X ",
"X + 4 t C B 6 & = t V R _ 2.3.#.b d 1 , . X X O O O . X   : , 1 s b #.3.2._ R B 9 3 & 5 N C t 3 + X ",
"X + 2 t C N 5 & 2 t V R <.8.s.+.p O O O O O X . X X X . O O X O O p $.s.8.4.R C t = & 5 N C y 3 + X ",
"X + 4 t C N 5 & & t V R 4.j.s.*.a : # O O : : : : # : # # : # O : a $.s.h.4.R Z t = & 5 N C y 3 + X ",
"X $ 4 t C N 5 & = 9 B R 4.h.m.f.;.&.$.$.$.$.$.$.$.$.$.$.$.$.+.$.&.;.f.m.h.4.R V 9 = & 4 N V y 4 + X ",
"X $ 4 y C B 5 & = t V R [ e.j.b.v.v.v.v.b.v.v.v.v.v.v.v.b.v.v.v.v.v.b.h.0.' R V t - & 3 y m t = + X ",
"X . 4 t Z B 6 & = 9 C G G P P P R L P P L R P P R L R L P P P P R L P P L G G V t * + . $ $ + . . O ",
"X $ 4 t V N 5 & = t V F F F S S D S S S S D S S S D S S S S S S S S S S S G F V t * + X X . X . O O ",
"X % 3 t C N 5 & 2 t V F S S S S S S S S S S S F S S S F D S S S S S S S S F F V 7 & . O O . . . . . ",
"X . 3 t C N 5 & & t V F F S S S S S S S S S S F S S S F S S S S S S S S S S F V t * + X O X O . X X ",
"X + 3 y C N 5 & = t V S S S S S F F F F F S F S F S F S F F F F F S F S S S S V t & $ $ 4 4 = & o O ",
"X $ 3 y C N 5 & = 7 V S S S S S S S S F F F S F F F F F F F S S F F F F S S S V t * & 5 N B t 3 + X ",
"X + 3 y C N 5 & = t N S F F S S S S S S F F S F S F F F S F S S F S F S S S S V 7 = & 5 N C t 4 + X ",
"X + 4 y C N 5 & 2 t B S F S S S S S S D S S S S S S S S S S S D S S S S S S S V t & & 5 N V y 3 + X ",
"X + 3 t C N 5 & = 9 B D D D D D A A A A A D D D D A A D D A D D D D D D D D D B t * & 5 N C t 4 + X ",
"X + 4 t C N 6 & $ & 3 5 5 5 4 5 5 5 5 5 5 4 5 5 5 5 4 5 5 5 5 4 5 5 5 5 5 5 5 2 $ $ & 5 B V t 4 + X ",
"X $ 3 y C C t 4 = = & = = = = = = = = = = = = = = = = = = = = = = & = = = = = * & = 4 t V C t 4 + X ",
"X + 3 t C D Z Z Z Z Z Z Z Z Z Z Z Z Z Z Z C Z C Z Z Z Z Z C Z Z Z Z Z Z Z Z Z C Z Z Z A D C t 4 $ X ",
"X . $ = 6 t 6 6 9 6 t 6 9 9 9 9 9 6 9 9 9 9 9 9 9 9 9 9 9 9 9 9 9 9 7 9 9 7 9 9 9 9 9 9 9 6 = & . O ",
"    O O . O . . . O X O O   . O O . O . O .   O O O   O   O O O . . O . . O O . . X . o o o o . . X "
};
