/* XPM */
static char *wall[] = {
/* columns rows colors chars-per-pixel */
"50 50 107 2 ",
"   c #020202",
".  c #090604",
"X  c #090807",
"o  c #0D0C0C",
"O  c #110905",
"+  c #1C0D06",
"@  c #110F0D",
"#  c #12110F",
"$  c #1E1D1A",
"%  c #2B1307",
"&  c #2D1509",
"*  c #2E1A0F",
"=  c #3B1C0C",
"-  c #2F2C27",
";  c #2F2D29",
":  c #3A322B",
">  c #431E0C",
",  c #56260E",
"<  c #442514",
"1  c #6D2E0F",
"2  c #6F3112",
"3  c #713212",
"4  c #70381C",
"5  c #433F39",
"6  c #44413B",
"7  c #564234",
"8  c #5A4436",
"9  c #67422D",
"0  c #72503B",
"q  c #4A4740",
"w  c #5B574F",
"e  c #5C5850",
"r  c #74685A",
"t  c #746F64",
"y  c #757065",
"u  c #7B7265",
"i  c #873B15",
"p  c #9D4316",
"a  c #974319",
"s  c #9D4518",
"d  c #A5481A",
"f  c #AF4C1B",
"g  c #B14D1B",
"h  c #9F5E3A",
"j  c #B15323",
"k  c #BB6436",
"l  c #BB693C",
"z  c #C1541D",
"x  c #C9571E",
"c  c #CD591F",
"v  c #D35B1F",
"b  c #DB5D1F",
"n  c #D75D20",
"m  c #DB5F21",
"M  c #CF6129",
"N  c #DD6022",
"B  c #DC672B",
"V  c #DF682C",
"C  c #D06933",
"Z  c #DC6E34",
"A  c #D0703D",
"S  c #DD743D",
"D  c #E16222",
"F  c #805B43",
"G  c #9D7358",
"H  c #937C68",
"J  c #DD7741",
"K  c #9F816A",
"L  c #8C8577",
"P  c #8D8779",
"I  c #918474",
"U  c #A38C76",
"Y  c #B79479",
"T  c #DF824F",
"R  c #DE8351",
"E  c #DF8B5B",
"W  c #E28551",
"Q  c #CE8A62",
"!  c #DF8F61",
"~  c #CB9470",
"^  c #DE9C73",
"/  c #E09264",
"(  c #E09568",
")  c #E19D73",
"_  c #A59D8D",
"`  c #B89D85",
"'  c #B6AD9C",
"]  c #BAB19F",
"[  c #BAB2A1",
"{  c #E2AB85",
"}  c #E3B796",
"|  c #E5B997",
" . c #E3BB9B",
".. c #CBC1AE",
"X. c #D3C5AF",
"o. c #D8CEB9",
"O. c #E4C3A5",
"+. c #E7C6A8",
"@. c #E3CCB2",
"#. c #E5D3BB",
"$. c #E8D6BD",
"%. c #E1D6C1",
"&. c #E6DBC5",
"*. c #E8DDC6",
"=. c #E6DDC8",
"-. c #EADEC8",
";. c #EAE0CA",
/* pixels */
"m m B O.=.&.&.&.&.&.&.&.&.&.&.&.&.&.&.&.&.&.&.&.&.&.&.o.;   . p D m { =.&.&.&.&.&.&.&.&.&.=.O.B m m ",
"m b B O.=.&.&.&.&.&.&.&.&.&.&.&.&.&.&.&.&.&.&.&.&.&.=.o.;   . p N b { =.&.&.&.&.&.&.&.&.=.=.O.B m m ",
"B B Z  .#.#.#.#.#.#.#.#.#.#.#.#.#.#.#.#.#.#.#.#.#.#.#.X.-   . s B B { #.#.#.#.#.#.#.#.#.#.#. .M c c ",
"O.O. .E J J J J J J J J J J J J J J J J J J J J J J J A *   X U +.O.( S J J J J J J J S J J k = & & ",
"=.=.#.J b b b b b b b m b m b b b b b b b b b b m m m c &   X _ ;.=.! b b b b b b m b b b b g .     ",
"&.=.#.J b b m m m m m m m m m m m m m m m m m m m m m c &   X _ -.&.! b m m m m m m m m m N g O   . ",
"&.&.#.J b m m m m m m m m m m m m m m m m m m m m m m c &   X _ -.&.! b m m m m m m m m m N g O     ",
"&.&.#.J b m m m m m m n m m m m m m m m m m m m m m m c &   X _ -.&.! b m m m m m m m m m N g O     ",
"&.&.#.S b m m m m m m m m m m m m m m m m m m m m m m c &   X _ -.&.! b m m m m m m m m m m g O     ",
"&.&.#.J m m m m m m m m m m m m m m m m m m m m m m m c &   X _ -.&.! b m m m m m m m m m D g O   . ",
"&.&.#.J b m m m m m m m m m m m m m m m m m m m m m m c &   X _ -.=.W b m m m m m m m m m D g O     ",
"&.&.#.J b m m m m m m m m m m m m m m m m m m m m m m c &   X _ -.=.( b N m m m m m m m m m g O     ",
"&.&.#.J b m m m m m m m m m m m m m m m m m m m m m m c &   X _ -.*.G 1 2 d m m m m m m m m g O   . ",
"&.&.#.J b m m m m m m m m m m m m m m m m m m m m m m c &   X _ *.=.w     2 D m m m m m m N g O     ",
"&.&.#.J b m m m m m m m m m m m m m m m m m m m m m m v &   X _ ;.=.w     3 D D m D D N m D g X     ",
"&.&.#.J b m m m m m m m m m m m m m m m m m m m m m m c &   . H { { 8     > i i i i i i i i i , , , ",
"&.&.#.J v m m m m m m m m m m m m m m m m m m m m m m c &   . s b b ,   .                   % c N N ",
"&.&.#.J b m m m m m m m m m m m m m m m m m m m m m m c &     s D b ,                       % v N N ",
"&.&.#.J b m m m m m m m m m m m m m m m m m m m m m m c &   . h W T F 5 5 6 6 6 6 6 5 6 6 6 7 a s s ",
"&.&.#.J b m m m m m m m m m m m m m m m m m m m m m m c &   . _ &.&.%.%.#.%.%.%.%.%.%.%.%.&.' # . . ",
"&.&.#.J m m m m m m m m m m m m m m m m m m m m m m m c &   X _ -.&.&.=.&.=.=.&.=.=.=.=.&.-.[ #     ",
"&.&.#.J m m m m m m m m m m m m m m m m m m m m m m m c &   X _ *.&.@.O.O.O.O.O.O.O.O.O.O.+.` @     ",
"&.&.#.J m m m m m m m m m m m m m m m m m m m m m m m c &   X _ -.&./ B B B B B B B B B B V j O   . ",
"&.&.#.J m m m m m m m m m m m m m m m m m m m m m m m c &   X _ -.&.! b m m m m b b m m m m g O     ",
"&.&.#.J b m m m m m m m m m m m m m m m m m m m m m m c &   X _ -.&.! b m m m m m m m m m m g O     ",
"&.&.#.J b m m m m m m m m m m m m m m m m m m m m m m c &   X _ -.&.! b m m m m m m m m m m g O     ",
"&.&.#.J b m m m m m m m m m m m m m n m m m m m m m m c &   X _ -.&.! b m m m m m m m m m D g O X   ",
"&.&.#.J b m m m m m m m m m m m m m m m m m m m m m m c &   X _ -.&.! b m m m m m m m m m m g O     ",
"&.&.#.J b m m m m m m m m m m m m m m m m m m m m m m c &   X _ -.&.W b m m m m m m m m m N f O     ",
"&.&.#.J b m m m m m m m m m m m m m m m m m m m m m m c &   X _ -.&.( m m m m m m m m m m N f o     ",
"%.%.o.S v m m m m m m m m m m m m m m m m m m m m m m x * X o _ &.&.W b m m m m m m m m N N g O X   ",
"5 5 5 < > > f m m m m m m m m m m m m m m m m m x , = < I _ _ Q R R S m m m m m m m m m N N g O     ",
"            p N m m m m m m m m m m m m m m m m z +   o [ ;.*.T b b b b m m m m m m m m m m g O     ",
"          . s N m m m m m m m m m m m m m m m N z +   # ] -.&.T b b m m m m m m m m m m m N g O     ",
"P P P P P L 9 , , , , , s m m m m m m m m m m m z +   # ] *.&.T b m m m m m m m m m m m m N g O     ",
"-.-.-.-.-.&.5           2 m m m m m m m m m m m z +   # [ -.#.T b m m m m m m m m m m m m N g O X   ",
"&.&.&.=.=.%.5           2 D m m m m D N D m N m z +   o [ -.%.T b m m m m m m m m m m m m N g O     ",
"&.&.#.{ ) ^ H t t t t y 0 2 3 3 2 2 2 2 3 2 3 2 4 r t u ~ ) ) S b m m m m m m m m m m m m N g O     ",
"&.&.#.S b N  .-.*.*.=.;.t                       $ ..;.$.J b b b m m m m m m m m m m m m m D g O X   ",
"&.&.#.J b N  .=.=.=.=.-.t                       $ ..-.#.J b m m m m m m m m m m m m m m m m g O     ",
"&.&.#.J b N ( { { { { { K w w w w w w w e q X   $ ..=.#.J b m m m m m m m m m m m m m m m N g O     ",
"&.&.#.J b m m m m b m b ) =.&.&.&.&.&.&.-.] @   $ ..=.#.J b m m m m m m m m m m m m m m m N g O     ",
"&.&.#.J m m m m m m m b ) =.=.=.=.=.=.=.-.[ #   $ ..-.#.J b m m m m m m m m m m m m m m D D g O X   ",
"&.&.#.J b m m m m m m b E } } } } } } } | Y @   $ ..*.#.J b m m m m m m m m m m m m m x s s i .     ",
"&.&.#.J b b m m m m m N N N B N N N N B D g O   $ ..*.#.J b m m m m m m m m m m m m N s . .         ",
"=.=.#.J b D D m N N N N N N N N m D N N D g .   $ ..*.#.S D D N m N N N N N N N N m D s . .         ",
"O.O. .k g g g g g g g g g g f f g g g g g a = & < ..*.#.l g g g g g g g g g g g g g g i .   . % & & ",
"B B M = X O O O O O O O O O O X O O O O . = j n C @.=.o.: . O O O O O O O O O O O O O .     & z c x ",
"m m c &                   .   X       X   & c m Z @.-.o.;       .                       .   & c N N ",
"m N c &     .                             & c m Z @.=.o.-               .   .               & c N N "
};
