/* XPM */
static char *wall[] = {
/* columns rows colors chars-per-pixel */
"50 50 85 1 ",
"  c #010203",
". c #0D0804",
"X c #0B0C0D",
"o c #160D05",
"O c #140E08",
"+ c #1D1105",
"@ c #14110F",
"# c #181009",
"$ c #0F1011",
"% c #141314",
"& c #1C1612",
"* c #1D1814",
"= c #171719",
"- c #181718",
"; c #17181A",
": c #1A1A1B",
"> c #271A0F",
", c #291C11",
"< c #221D1A",
"1 c #3A2107",
"2 c #34200C",
"3 c #3F250A",
"4 c #2F2012",
"5 c #322519",
"6 c #382B1F",
"7 c #222223",
"8 c #2B2621",
"9 c #342A21",
"0 c #3A2D21",
"q c #432608",
"w c #492B0D",
"e c #552F09",
"r c #563009",
"t c #5C3309",
"y c #472B11",
"u c #422D19",
"i c #4E3012",
"p c #4E341B",
"a c #533416",
"s c #543618",
"d c #55381B",
"f c #58391B",
"g c #6D3B0A",
"h c #763F0A",
"j c #613B14",
"k c #74400C",
"l c #79410B",
"z c #674019",
"x c #774514",
"c c #7A4612",
"v c #7E4811",
"b c #76481A",
"n c #7D4B1A",
"m c #864A0D",
"M c #894B0D",
"N c #904F0E",
"B c #93510E",
"V c #98530E",
"C c #824A15",
"Z c #8C4F11",
"A c #804A18",
"S c #8E5113",
"D c #975511",
"F c #985511",
"G c #A45A0F",
"H c #A95C0F",
"J c #A45B12",
"K c #A85D10",
"L c #B4610F",
"P c #BD660F",
"I c #AF6110",
"U c #B36210",
"Y c #BB6511",
"T c #BB6812",
"R c #C0670F",
"E c #C36D13",
"W c #CA6D11",
"Q c #D16F12",
"! c #CE7112",
"~ c #D67311",
"^ c #D97411",
"/ c #E27712",
"( c #E47912",
") c #EC7B12",
"_ c #F17E12",
/* pixels */
")))^^~^~~~~~~~~~~~WHHZ<-5~))^Q^^~~~~~~~~~~~WHHS4=-",
")))^~~~~~~^~~~~~^~WHHS<-5!))^^^~~~~^~~~~~^~WHHS:;;",
"))(^~^~~^~~~~~~~~~WHKS<:5Q))^~Q~^~~~~~~~~~~WHHS<::",
"^^^WEEEEEEEEE!EEEETHJS570E^^WEEEEEEEE!EEE!ETHHS877",
"~^~EEEEETEEEETEEEETHHS870E~~EEEEEEEEETEEETETKKS877",
"~~^EETEEEEEEEEEEEETHHS870T~~WEETTEEEEEEEEEETKKS877",
"LLLUIIIIIIILIIIIUIHVVv879JLLUIUIIIIIIIHLIIIKVVv878",
"GHHGHHHJHHGHHGHGHHFBNc879DHHHHHJGHHHHHHHKHHFBNv577",
"HHHHGHHHHHHHGHHHHHGMBc879DKKKKKKHGHHHHGHHHGGNBc877",
"qqqqqqqqqwiiwqqqqqq112<:<3qqqqqqqqwiiwqqqqq3112<7:",
"         X%%X        X-:=         X%%X        X-::",
"         X%%X         =:%         X%%X         %::",
"hhhhggtee,=%ylhhggggggxbxggggggtee4=%wlhhggggggjfj",
"_))^^^YHHa;:C__(^^^^~~^^^^^^^^^LKHa-:C__(~^~^^!HHI",
")))^~~UHHa-:A))(^^^~^~~^^~^~^^^LKKs:=C))(^~~^^!IHH",
"///~WWUHHs::A)/^W!!W!!!!!W!!!!WUKJs::A((^!W~!!EKHH",
"~~~WEEUHHf77n~^WEEETETEEEEEEETEIHHf77n^^!TEEEETKHH",
"^~~EEEIGHf77n^^~EEEEEEEEEEETEEEUHHf77n^^!EEEEETIHK",
"WWWTTTKGFf77bWWETTTTTTTTTTTTTTTIFGf77bWWETTTTTUGGG",
"HHHHGJVMBp77zHHHHHKKHHHHIJHHKKGDBMp77zHHHHHHJHGNNN",
"HHHHKKVDNp77jIHHKHHHHHHHHHKHKKKVMBp77zHHHHHHHHGBNB",
"MmMMmmlkku57sMMMMMMmMMZMZMMMmMMlkhu77sMmMMMmMMMlck",
".........%=;@........O**&.........@::@........O<:<",
"         $;;X         %%%         %::X         :::",
"++>o+++++455,++++++ooo%-%++>o+++++,55>o+++++oo#-::",
"WQQRPPPPTTTTTTPPPPIBVv876TQWRPPPTTTTTPPPPPPLVVl<::",
"_))^~~~~~^~~^^^~^^WKHD876~))^~~~~^^^^^^^~^^WHIN<-:",
"))(^~~~~~~~~^^Q~Q^WKKZ870^))^~~~~~~^~~^~~~~EHHS<::",
"^^^EWEE!EE!E!E!EEWTHHZ870E^^WEWEE!EEEEEEEEEPHHS875",
"^~~EREEEEEEETETEEETHJD870T^~WEEETEEEEEEEEEETHHS877",
"~^~EETTEETEEEEETEETHHZ870T^^EEEEEETEEEEETEETHHS877",
"LLTIUIILIIIIIIIIIUHBBC870JLLIIIIIIUIIUIIUIUHVDv877",
"HHHHGHHGHHHHHGHHHHVNNl879DJJHHGHHGHHHGHHHGHGNNc877",
"HHGHHHHHHHGHHHHHHHGBBc879DJIHGHHHHHHHGHHHHHVNNc877",
"qqqqqqqqqwiwwqqqqq31125:53qqqqqqqqwiiwqqqqqq112<7:",
"         X%%X         ;;%         X%%X        X-::",
"         X%%X         -;%         X%%X         =:;",
"hhhgggtrr,==qhhhgggggkbbbggggggtee4%=yhhhggggggjjt",
")))/~~PHHa;;C_)(^^^^~^^^~^^^^^~THHa--C_)/^^^^^WHHH",
")))^~~LGHa::C))(~^~~~~^^~~~~~~~TGHa-=C_)/~^^^^~HHH",
"///~!WLHHs::A((^!!!!!!!!!!!!!!WUHHd::C((^~!!!!EIHH",
"^^~EEEIGHf77n^~!EEETEETEEEEEEEEIHJf77n^~WEEETETHGH",
"~^^EEEIHHf77n^^!EEEEEEEEEEETEEEUHHf77n^^!EEEETTIHH",
"WEWTTTKGGs77bWWETTTTTTTTTTTTTTYKGFd77b!WEYTTTTTGGG",
"GHHHKKVNMp77jKKKHHHHHHHHJHHHHHHVBMs77zHHHHHHHHHNMB",
"HHKHKKVNNp77zIKKHHHHHHHHIJKHHKKVNBp77zKHHHHHHHGBNB",
"MMMMMmlhhu77sMZMMmMMMMMMMMMMMMMlkku77aMMMMMMmMmkkk",
".........%<:@.....................%::@............",
"    .    O::$         .           %-:X            ",
"         &::O   .         .   .   @::X   .   .   ."
};
