/* XPM */
static char *zombi_sfondo[] = {
/* columns rows colors chars-per-pixel */
"50 50 230 2 ",
"   c #020101",
".  c #0D0602",
"X  c #060709",
"o  c #0A0A0A",
"O  c #060B0C",
"+  c #100702",
"@  c #110803",
"#  c #190D07",
"$  c #141313",
"%  c #1A1613",
"&  c #171719",
"*  c #1B1A1A",
"=  c #191818",
"-  c #0E1012",
";  c #271205",
":  c #281306",
">  c #2B170C",
",  c #231D19",
"<  c #281A15",
"1  c #351C19",
"2  c #301409",
"3  c #39200B",
"4  c #2A211B",
"5  c #22211F",
"6  c #392519",
"7  c #0C1B2F",
"8  c #192323",
"9  c #1B3838",
"0  c #0F3A3D",
"q  c #232222",
"w  c #2B2A28",
"e  c #3D2222",
"r  c #312820",
"t  c #372828",
"y  c #37342B",
"u  c #2B3534",
"i  c #273838",
"p  c #373837",
"a  c #4D1914",
"s  c #651A1B",
"d  c #7A1B1B",
"f  c #4A250B",
"g  c #44230A",
"h  c #5A2D0E",
"j  c #512A0F",
"k  c #4B2A15",
"l  c #542D15",
"z  c #562A18",
"x  c #59351C",
"c  c #5E381E",
"v  c #55321C",
"b  c #683718",
"n  c #743916",
"m  c #7B3C16",
"M  c #753B18",
"N  c #432423",
"B  c #482A27",
"V  c #532A2A",
"C  c #592D2C",
"Z  c #443938",
"A  c #5A3435",
"S  c #523127",
"D  c #79292D",
"F  c #633434",
"G  c #6C3835",
"H  c #6D3A39",
"J  c #683635",
"K  c #733B3A",
"L  c #7A3E3E",
"P  c #6D3827",
"I  c #26413E",
"U  c #32453F",
"Y  c #7B411B",
"T  c #5D423B",
"R  c #734431",
"E  c #081D46",
"W  c #0E264F",
"Q  c #283944",
"!  c #0E336C",
"~  c #0B2D6D",
"^  c #1E4547",
"/  c #195558",
"(  c #244B4C",
")  c #274847",
"_  c #384B48",
"`  c #2B5353",
"'  c #295757",
"]  c #335D5C",
"[  c #395A5A",
"{  c #2E4F54",
"}  c #35615F",
"|  c #2C5A69",
" . c #295168",
".. c #1D6262",
"X. c #2B6464",
"o. c #296B6A",
"O. c #356565",
"+. c #356B6B",
"@. c #396C6B",
"#. c #396564",
"$. c #336875",
"%. c #3B7475",
"&. c #3E7A7A",
"*. c #347676",
"=. c #1C476A",
"-. c #565657",
";. c #4B5450",
":. c #7E4141",
">. c #695855",
",. c #526150",
"<. c #417C7B",
"1. c #477776",
"2. c #5B7B7B",
"3. c #4E696A",
"4. c #6A6A69",
"5. c #737070",
"6. c #8A241A",
"7. c #912519",
"8. c #9D1E25",
"9. c #8E3A3A",
"0. c #942D2E",
"q. c #AB2A29",
"w. c #A11C26",
"e. c #C4282C",
"r. c #83441C",
"t. c #8A4419",
"y. c #8E4B1F",
"u. c #894317",
"i. c #944A1D",
"p. c #9B4D1D",
"a. c #9F501F",
"s. c #A2511F",
"d. c #AB551F",
"f. c #894723",
"g. c #914C20",
"h. c #995122",
"j. c #86433A",
"k. c #AC5620",
"l. c #AD5922",
"z. c #A55624",
"x. c #B05721",
"c. c #B35921",
"v. c #BB5E22",
"b. c #B05D28",
"n. c #BE6327",
"m. c #C15E22",
"M. c #C46324",
"N. c #CC6725",
"B. c #CE6826",
"V. c #C36328",
"C. c #D36726",
"Z. c #D26927",
"A. c #DD6B27",
"S. c #D56A28",
"D. c #DB6C28",
"F. c #D26728",
"G. c #E26D27",
"H. c #E36E28",
"J. c #E86E28",
"K. c #E67029",
"L. c #EC712A",
"P. c #F4732A",
"I. c #F9752B",
"U. c #FD782C",
"Y. c #834343",
"T. c #8C4747",
"R. c #94484A",
"E. c #8E5455",
"W. c #8A615F",
"Q. c #857978",
"!. c #93736E",
"~. c #B44C54",
"^. c #CF4E5A",
"/. c #C86870",
"(. c #D35A65",
"). c #40807F",
"_. c #89817C",
"`. c #0B3487",
"'. c #0D3B95",
"]. c #1B4891",
"[. c #3D7782",
"{. c #2D6391",
"}. c #1D4CA5",
"|. c #134DBF",
" X c #2456AB",
".X c #5C7F80",
"XX c #1550C7",
"oX c #2461DF",
"OX c #245ED6",
"+X c #3A8181",
"@X c #438483",
"#X c #4A8D8C",
"$X c #498686",
"%X c #588585",
"&X c #4C908F",
"*X c #4D9594",
"=X c #4F9897",
"-X c #4F9998",
";X c #519B9A",
":X c #519695",
">X c #6A9695",
",X c #768E8E",
"<X c #55A4A3",
"1X c #59AAAB",
"2X c #57A6A7",
"3X c #6CA3A4",
"4X c #7DAAA9",
"5X c #53A09F",
"6X c #868887",
"7X c #888887",
"8X c #989796",
"9X c #869293",
"0X c #A79591",
"qX c #8AA8A9",
"wX c #98B3B2",
"eX c #ABAAAA",
"rX c #B6B7B6",
"tX c #AFAFAD",
"yX c #CBB3B3",
"uX c #C49996",
"iX c #CBC4BB",
"pX c #AFBFC0",
"aX c #C1C5C5",
"sX c #C9D3D3",
"dX c #D7DCDB",
"fX c #D6CECF",
"gX c #E7E9E8",
"hX c #EEF1F0",
"jX c #F6F7F7",
"kX c #DDE4E4",
/* pixels */
"I.I.I.H.H.H.H.H.H.H.H.H.H.G.H.G.K.H.Z.x.x.i.4 & 6 S.I.I.K.D.K.K.H.G.H.H.H.H.H.G.K.H.G.Z.x.x.i.6 $ & ",
"I.I.I.H.H.H.H.H.G.K.K.G.H.H.G.K.K.A.Z.v.x.g.4 & 6 Z.I.I.K.G.K.A.H.H.H.H.G.H.G.K.G.K.G.S.v.x.g.5 & = ",
"I.I.P.H.H.H.H.H.K.G.G.G.G.K.G.H.G.G.C.x.x.g., & k B.I.I.K.H.D.H.H.H.G.H.H.K.G.G.G.H.G.C.c.l.y.4 & * ",
"H.H.H.S.B.Z.B.Z.B.B.B.B.B.S.B.B.B.Z.M.c.l.g.6 q B V.K.K.S.B.B.B.Z.B.B.B.B.S.B.B.Z.S.Z.M.v.l.g.r 8 q ",
"G.K.H.B.N.B.B.B.M.B.B.B.N.N.N.N.B.B.M.x.x.i.r 5 B V.J.H.B.B.B.N.N.N.B.B.B.M.B.B.B.M.N.M.c.c.g.r q q ",
"G.G.G.Z.N.M.N.B.N.N.B.B.N.N.N.N.B.B.M.x.x.g.r 5 B v.A.G.Z.B.B.M.N.N.N.B.B.N.N.N.N.B.N.V.c.d.g.r q q ",
"v.m.m.v.v.v.v.v.v.v.v.m.v.c.v.v.v.v.x.z.a.r.6 w t r.f.f.x.x.x.l.c.v.v.v.v.c.v.v.v.v.v.c.s.a.r.r q 5 ",
"x.c.c.l.l.c.x.l.c.c.k.c.c.x.c.x.x.l.s.i.f.G H T K K K K R L L G c t.s.d.v.c.l.v.c.c.l.s.a.p.Y 6 q q ",
"d.d.d.d.d.d.d.d.d.d.d.d.k.s.d.k.f.f.L K K L Y.:.Y.Y.:.:.L L K J V e z 6.z.l.d.d.d.d.s.s.p.p.Y 4 q q ",
"f f f f f j f f f j l v j f j G H K L :.9.:.:.Y.Y.Y.Y.Y.:.9.L :.K C e < > j f f f f f f 3 3 3 4 q * ",
"                  o % $ o V G L K L :.:.Y.Y.Y.T.Y.T.R.R.T.R.T.T.R.9.J e < X                 O % * * ",
"      .       .     $ - o F T.:.K L Y.T.:.Y.T.Y.R R.R.E.R.T.T.Y.L L K F 1           .         $ * * ",
"m 6.Y Y n n h h h 4 & $ 6 G :.L J F K K H :.Y.H A 9.L L L H F F F J H J e > m m m n n n n n n b c b ",
"P.P.P.G.A.A.m.c.d.l * * N F F F C N e V V C F V N C V V C V N V V A F F N 1 J.I.L.A.A.A.A.A.Z.x.l.c.",
"U.U.P.K.G.G.m.c.x.x % * V F F C V r w p t t B t p Z t p Z B w p y t C C 1 l L.U.L.K.K.K.K.H.S.v.c.c.",
"L.L.L.G.Z.Z.v.c.d.x * 6 C F C V e e { $.] { #.[ 1.1.[ O.1.[ #.+.[ _ p N 1 M L.L.K.D.S.A.D.D.B.c.c.c.",
"H.H.H.S.Z.B.v.c.x.c q t V F C B t u #.*X-X#X-X<X2X2X-X-X2X<X=X*X#X&._ < < Y H.H.S.N.N.B.B.B.M.c.c.c.",
"H.H.G.Z.B.N.v.x.k.x q t V C V N u ( } $X-X<X1X1X1X1X1X1X<X<X<X<X$X&._ O , f.H.J.D.B.B.B.B.B.M.v.c.x.",
"C.C.C.M.M.M.x.d.h.x q 1 N V V e u ' O.%.*X5X<X<X1X1X1X2X<X<X1X5X#X&.` u - M B.S.N.M.M.M.M.M.v.d.l.k.",
"c.c.c.c.d.l.s.i.g.x q , 1 N N 1 9 | 1.>XqXwX4X3X<X1X<X-X-X-X2X3X>X&X#.( ( % p.c.c.c.c.x.x.c.x.p.p.i.",
"c.c.c.c.x.x.z.p.g.S q * 5 4 t p ` #.,XsXhXhXdXwX-X5X5X&X#X*X4XsXaX3X@.+.%.] % s.c.c.x.x.x.x.d.p.i.p.",
"u.t.t.u.r.u.m n n k u ` O.] u u @.1.wXjXjXjXgXsX>X*X5X-X=X=XwXgXhXqX1.' &.+.I r.t.t.t.t.t.t.r.m Y M ",
"+ . + + . + . . . & ` .X@X%.( u #.).qXhXjXhXgXsX&X:X*X-X-X=X4XsXkXqX1.] %.] O . + + + . + + # 4 , 4 ",
"                  9 o.+X&.*.` i #.<.2.pXkXgXdXqX).#X*X*X*X*X*X3X9X).&.X.` O                   % & = ",
"; : > ; : : : ; : y +.).&.%.+.' O.@X<.1.>X,X).).$X$X%X%X$X@X$X$X@X&.} I 6 > ; ; ; ; ; ; ; # ; % * * ",
"N.C.F.m.v.m.m.v.v.b.,.@.&.%.%.X.O.%.@X).).).2.2.5.).,X!.6X2.3.1.%._ Y l.v.v.v.v.m.m.v.c.p.i.n , * * ",
"U.U.P.J.H.H.H.H.K.H.n._ ^ ( i i ` #.@.#.#.1.3.5.0XiXdXfXyX0X>.Z Y S.G.K.K.K.K.K.H.J.K.C.c.c.i., & * ",
"P.P.P.H.H.G.G.H.G.H.H.l.> % a s s V A A Z A J G W.uXyX/./.E.> M.G.H.H.K.H.H.H.H.G.G.G.C.c.x.y.4 * * ",
"K.K.H.Z.C.N.C.S.F.F.S.S.x.# s 8.8.6.8.q.q.q.7.6.0.~.(.^.^.9.P m.S.S.B.B.B.B.B.B.Z.B.B.M.c.c.g.r 8 6 ",
"H.K.G.B.N.C.B.Z.N.N.F.M.a 2 s D D d w.e.e.e.7.6.a R.~.^.R.2 v.C.M.B.B.B.B.B.B.B.B.B.B.M.c.c.g.r q q ",
"G.G.A.B.N.M.M.N.N.M.F.m.a 2 Q 3.;.D q.e.e.q.T Z o . o - @ u.h.l.M.B.M.N.B.B.N.N.M.B.B.M.c.x.g.r 8 q ",
"v.m.M.v.v.v.v.v.v.c.v.s.p u ' [..X-.J 0.D H ] o.' - ^ i O ) ( _ g.v.v.v.v.v.v.v.v.v.v.x.a.h.r.r q q ",
"c.c.v.c.x.c.c.x.c.c.c.h.{ #.$.<.#X#X%X3.;.] o.o.*.*.o.X.o.O.( ^ Y d.c.c.x.d.v.c.c.x.c.l.p.i.Y 6 q q ",
"d.d.d.d.d.d.d.d.d.x.s.;.{ $.$.| $.[.$X#X@X$X.X' | o.*.*.+X*.' ^ n d.d.d.l.d.d.d.d.d.d.p.i.i.Y r q q ",
"f f f f f f f f f j l W ~ ].].]. X X{.[.#X-X*X@.' ^ | X.X.X.( 9 3 f j h l j f f f f f f g 3 3 * q * ",
"                  o $ E `.|.OX}.`.'.`.=.*.*X*X&.' ) O X O I 9 9     o $ $ o                 X = * = ",
"    .     .       X - W `.XXoX}.- ~ ~ ~ | %.%.} ( ^       o .       . $ $       .           . % % * ",
"m m m n n n b h z 1 & W `.XXoXXX- X E '.].| ) ( I p b Y n n n h h h 4 $ % k m m m M M n n n M b b b ",
"P.P.P.H.A.A.m.k.k.z & 7 ~ '.}.].0 . 7 ! ! ^ y U T M.G.G.A.A.A.m.c.d.v = * r.P.P.H.G.A.H.A.H.N.l.x.d.",
"I.U.P.J.H.G.m.x.k.v , , Q | $.{ 4 g 7 W / _ V.N.S.K.G.G.K.K.H.M.c.d.x = * y.I.I.L.H.H.L.H.H.H.c.c.c.",
"L.L.L.H.A.C.m.x.k.x * 8 #.$X*X1.z.h 0 / o.,.B.G.S.D.S.D.S.D.S.v.c.d.x 5 5 r.L.L.H.G.D.D.S.D.B.v.x.x.",
"H.H.H.B.N.N.v.x.l.c q ) @.-X#Xc c.k 0 ..o.,.n.B.B.Z.B.B.B.Z.N.v.c.z.c q q f.A.K.S.C.B.B.M.B.V.x.x.c.",
"H.H.H.B.N.B.v.x.k.b w 3.$X%X1.d.m _ ` ] ,.z.B.B.B.B.B.M.B.B.N.v.v.d.c q q f.A.K.S.F.B.B.N.M.M.v.x.x.",
"Z.C.C.M.M.M.x.d.s.c >.5.,X2.>.z.1 ;.4.4.>.b.n.M.M.M.M.M.M.M.M.x.l.p.c q q Y F.Z.N.m.M.M.M.M.M.d.d.d.",
"k.c.v.x.c.x.z.p.y.c j.R.E.Q.8X8X5.>.Y.>.5._._.b.l.d.c.c.c.c.c.s.p.y.v 5 q Y z.v.c.c.c.c.c.c.c.p.i.p.",
"x.x.x.x.x.x.a.p.g.j.q.8.!.yXhXjXgX0X>.Q.eXaXaXtX!.d.c.c.x.x.x.s.p.i.x q w b l.x.c.c.x.x.x.c.d.p.i.p.",
"t.t.t.t.t.t.m n m 0.0.E.eXsXkXgXgXsX8X7XeXrXiXrX8XY u.t.t.t.u.m M M k 8 q v t.t.t.t.t.t.t.t.r.m n m ",
"+ + + + + + + . , A E.Q.8XeXeXeXrXeX6X4.6X6X9X9X6XT @ + + + . . . @ $ * * # + + + + + + + + . . . . ",
"                q -.7X6X6X6X6X6X9X9X5.;.4.4.5.5.4.p X               $ % = X                         ",
"                X % q 5 % o o o o o o o . o o O o X .               - = % X                         "
};
