/* XPM */
static char *coin_sfondo[] = {
/* columns rows colors chars-per-pixel */
"50 48 205 2 ",
"   c #020201",
".  c #0A0602",
"X  c #0D0804",
"o  c #0A0A0A",
"O  c #070808",
"+  c #150A04",
"@  c #1A0F07",
"#  c #120D09",
"$  c #181007",
"%  c #1D130A",
"&  c #12100F",
"*  c #0F1011",
"=  c #161515",
"-  c #1B1512",
";  c #1D1917",
":  c #17181A",
">  c #1A1A1A",
",  c #241005",
"<  c #211409",
"1  c #2C1609",
"2  c #26190A",
"3  c #2D1D0C",
"4  c #2C1507",
"5  c #321A0B",
"6  c #301708",
"7  c #2A1E13",
"8  c #231D19",
"9  c #34220E",
"0  c #39240E",
"q  c #23201E",
"w  c #2C211A",
"e  c #32251C",
"r  c #35291E",
"t  c #392719",
"y  c #222221",
"u  c #282522",
"i  c #2F2C2A",
"p  c #342B22",
"a  c #312D2A",
"s  c #3D312A",
"d  c #3C3A3A",
"f  c #43220A",
"g  c #4C250B",
"h  c #4E280E",
"j  c #452D13",
"k  c #452C19",
"l  c #542F14",
"z  c #5C391B",
"x  c #55341D",
"c  c #6D3615",
"v  c #693A1C",
"b  c #663616",
"n  c #703716",
"m  c #743916",
"M  c #7A3B16",
"N  c #743C1A",
"B  c #7D3F18",
"V  c #423023",
"C  c #47362A",
"Z  c #583A25",
"A  c #403C39",
"S  c #6C461D",
"D  c #67441C",
"F  c #7D421D",
"G  c #524035",
"H  c #6B4426",
"J  c #744120",
"K  c #77492D",
"L  c #79492A",
"P  c #6B4C32",
"I  c #734A30",
"U  c #6C5239",
"Y  c #5D5042",
"T  c #7F5A41",
"R  c #6E5C4A",
"E  c #803E17",
"W  c #824118",
"Q  c #8D471C",
"!  c #8C4A1F",
"~  c #814017",
"^  c #90471B",
"/  c #954A1C",
"(  c #9C4D1D",
")  c #9E501F",
"_  c #A14F1E",
"`  c #A5521E",
"'  c #AA541F",
"]  c #8C4A20",
"[  c #884F28",
"{  c #914E23",
"}  c #8A5825",
"|  c #875724",
" . c #995824",
".. c #875837",
"X. c #9C5D34",
"o. c #A55421",
"O. c #AE5720",
"+. c #AE5821",
"@. c #AA5C2C",
"#. c #B45A21",
"$. c #BA5D22",
"%. c #B35B25",
"&. c #9D662A",
"*. c #9B652A",
"=. c #8B653E",
"-. c #90693F",
";. c #A1682C",
":. c #AB6E2D",
">. c #A76229",
",. c #BB6129",
"<. c #BA6229",
"1. c #AE712F",
"2. c #AA6233",
"3. c #B66935",
"4. c #B47531",
"5. c #B97631",
"6. c #BE7C33",
"7. c #BA7B3C",
"8. c #A7753F",
"9. c #C74B0B",
"0. c #C94D0C",
"q. c #CA510F",
"w. c #CD5613",
"e. c #CE5A15",
"r. c #D05D17",
"t. c #D15E18",
"y. c #D66A1E",
"u. c #D5671E",
"i. c #C25E22",
"p. c #C46224",
"a. c #CB6625",
"s. c #CE6825",
"d. c #C36529",
"f. c #CD6A2A",
"g. c #C96429",
"h. c #D26726",
"j. c #D36926",
"k. c #DA6D24",
"l. c #D36A28",
"z. c #DB6C29",
"x. c #D0672A",
"c. c #C0722D",
"v. c #DE792A",
"b. c #C26D35",
"n. c #C86F39",
"m. c #CC7136",
"M. c #C37C34",
"N. c #C67736",
"B. c #D57939",
"V. c #D67837",
"C. c #E36E29",
"Z. c #EA6F29",
"A. c #E26C27",
"S. c #EB712A",
"D. c #E07E2C",
"F. c #F6742B",
"G. c #F9752B",
"H. c #E57C39",
"J. c #E47533",
"K. c #806F5F",
"L. c #A67444",
"P. c #8D7660",
"I. c #9B7D65",
"U. c #C47A47",
"Y. c #C68135",
"T. c #CB8437",
"R. c #C58239",
"E. c #CF8638",
"W. c #D9863B",
"Q. c #D48B3B",
"!. c #DB8A3B",
"~. c #D78538",
"^. c #DE913C",
"/. c #E3822F",
"(. c #E48632",
"). c #E68B35",
"_. c #E88D36",
"`. c #E28E3C",
"'. c #E4943E",
"]. c #EC963C",
"[. c #EC993F",
"{. c #BC8448",
"}. c #CC814E",
"|. c #C58847",
" X c #D98951",
".X c #CF8F58",
"XX c #E59640",
"oX c #EE9B40",
"OX c #EB9A47",
"+X c #F09D41",
"@X c #EA935B",
"#X c #EFA04A",
"$X c #F1A047",
"%X c #F0A14A",
"&X c #EBA259",
"*X c #F0A557",
"=X c #CA8F67",
"-X c #E59F6F",
";X c #DDA76E",
":X c #DEA970",
">X c #ECA968",
",X c #F2B06E",
"<X c #F3B779",
"1X c #EAA878",
"2X c #EEAD81",
/* pixels */
"G.G.F.C.C.C.C.C.C.C.C.A.J.2X<X$X+X+X+X+X+X+X+X+X+X+X+X'.S X         o ..V.A.C.C.A.C.A.h.#.#.! w : : ",
"F.F.F.C.C.C.A.z.C.A.C.J.H.@X<X%X[.+X+X+X+X+X+X+X+X+X+X'.S X         # ..z.C.C.C.C.C.C.a.#.#.! w > > ",
"Z.S.C.l.l.j.j.j.j.x.m.>X1X1X,XoX+X+X+X+X+X+X+X+X+X+X+X].| 9 3 < .   X I <.h.l.h.j.k.j.p.#.#.! p y y ",
"C.C.C.j.a.a.a.a.g.f. X>X*X*X%XoX+X+X+X+X+X+X+X+X+X[.+X[.Q.Y.6.} +   O % k J d.g.a.g.g.p.#.' { r y y ",
"k.k.k.s.a.p.a.a.p.f. X*XoX+X+X+X+X+X+X+X+X+X+X+X+X+X+X+XoX[.[.1.%       . % ] g.a.a.s.i.+.' ] p y y ",
"i.<.r.i.<.$.$.$.<.<.}.&X+X+X+X+X$X[.[.[.[.+X[.[.+X+X+X[.oX$X[.1.%         # J $.$.<.$.+.` ` W r y u ",
"+.#.#.+.#.#.+.+.#.<..X&XoX+X+XoX[.].(./.).(.(.(._.[.+X+X[.$X[.:.%         X J +.+.$.+.` ( / F t y y ",
"` ` ` ` ` ` ` ` ` o.=X&XoX+X+X+X[./.r.w.w.w.w.w.k.].+X+X+X[.[.1.%         X v ( ` ` _ ( ^ ^ N r y y ",
"g g g g g g g g l P =X{.oXoX+X+X]./.q.9.9.9.9.0.y.].[.[.+X+X[.1.<         . t g g g g g f f 5 8 q > ",
". . .   . .   % Y R P.{.oX+X]._.).v.r.e.e.e.e.e.u.M.Y.T.].+X[.4.j 3 2 O     # O . .       O X = : : ",
". . . . . . X C L.{..XXX+X].C.u.r.k.).).).)._.).:.j 0 z E.+X+X'.Y.6.&.3     O o   . . . . . X - > q ",
"M M M m c c b ..7.XXXX#X+X].k.0.q.y.].+X[.[.[.[.&.$ . 9 Y.+X+X[.oXoXY.0         O 6 c n n n c b z v ",
"Z.Z.Z.z.h.h.,.U.Q.[.[.+X+X].k.0.9.y.].[.+X+X+X[.&.$   9 Y.+X+X+X+X+XM.0           0 i.z.z.h.g.O.o.' ",
"G.G.F.Z.A.A.g.}.W.[.+X+X[.].k.0.9.y.].+X+X+X+X[.;.$   9 Y.+X+X+X+X+XT.0           6 i.Z.C.C.z.$.#.#.",
"S.S.S.A.j.h.d.}.W.[.[.+X$X[.k.0.0.y.].+X+X+X$XoX;.$   9 Y.oX+X+X+XoXT.0           1 d.A.z.k.a.$.#.#.",
"Z.A.A.k.h.a.d.U.!.[.+X+X[.[.k.0.0.y.].+X[.$X[.oX&.$   9 Y.+X+X+X+XoXY.0           < 3.x.h.a.p.#.#.#.",
"C.A.C.j.a.g.<.N.!.[.+X+X+X].k.0.0.y.].+X+X+X+X[.&.$   9 Y.oX+XoX[.+XY.0           % 3.f.a.a.p.$.#.+.",
"j.j.j.p.p.p.%.3.!.[.+X+X+X].k.0.0.y.].oX+XoX+X[.;.$   9 Y.$X[.^.~.'.Y.0           % 2.d.p.p.$.+.' o.",
"#.#.#.#.#.+.o.2.~.[.+X+X+X].k.0.0.y.].+X+X+X+X[.;.$   9 Y.+X[.~.m.v.Y.0 O       O % X.%.#.#.O.( ( ( ",
"+.+.#.' +.' ` 2.!.[.+X+X+X].k.q.9.y.].+X+X+X+X[.;.$   9 Y.[.].T.>.5.M.0           % X.%.+.+.o.( / / ",
"~ E ~ ~ B B m [ ~.[.+X+X+X].k.0.9.y.].+X+X+X+X[.&.$   9 Y.oX].5.W >.4.9           # K Q B ~ E M N N ",
"+ + + + + + + t Y.[.+X+X+X].k.q.9.y.].+X+X+XoX[.;.$   9 Y.oX].*.5 D &.9           O 8 @ + + @ 7 8 w ",
"              r T.[.+X+X[.].y.q.9.y.].+X+X+X+X[.;.$   9 Y.+X].*.j D *.0           O &       O = > > ",
"6 6 5 6 6 6 3 z Q.+X+X+X+X].k.0.0.y.].+X+X+X+X[.;.$   9 Y.+X[.4.} | :.0           O 5 1 , , , : > ; ",
"p.a.i.$.$.#.$.b.oX+X+X+X[.].k.q.0.y.].+X+X+X$X[.;.$   9 Y.+X[.'.~.V.M.0 .         < _ ' / ^ m 8 ; : ",
"G.G.F.Z.A.A.A.H.].[.+X+X[.[.y.0.9.y.].+X+XoX+X[.&.$   9 Y.$X+X$XoX].Y.0           , i.h.#.#.Q w : > ",
"G.F.Z.C.C.C.C.H.[.[.+X[.+X].A.q.9.y.].+X+X+X+X'.;.$   9 Y.+X+X+X+XoXR.0           < i.s.#.#./ e > > ",
"Z.Z.C.l.l.x.z.V.[.+X+X+X[.].k.q.9.y.].+X+X+X$X[.;.$   9 Y.+X+X+X+XoXT.0           , $.g.#.+.] r y w ",
"C.C.C.h.a.s.a.V.].[.+X+X+X].k.0.0.y.[.oX+X+X+X[.&.$   9 Y.+X+X+X+XoXM.0           < #.p.#.+.] p y y ",
"A.A.z.h.g.p.p.B.'.oX+X+X+X].y.q.9.y.].oX+X+X+X[.;.$   9 Y.+X+X+X+X+XT.0           % #.p.#.O.] p y y ",
"i.i.i.$.$.$.,.m._.oX+X+X+X].y.q.0.y.].oX+X+X$XXX;.$   9 Y.oX+X+X+XoXT.0           , ` #._ _ W p y y ",
"#.#.#.#.#.#.%.5.'.oX+X+X+X].k.q.9.y.].+X+X+X+XoX;.$   9 Y.+X+X+X+XoXY.0           % ( O.( { F p y y ",
"o.` ` ` ' ' ` 3.!.].+X+X+X].k.0.0.y.].+X+X+X+X[.&.$   9 Y.+X+X+X+X[.Y.0 .         @ / ( Q Q N p y y ",
"g g g h g g h J T.oX+X+XoX[.k.0.9.y.].+X+X+X+X[.;.$   9 Y.+X+X+X+X+XY.0           # x h f f 0 8 y ; ",
". . . . . . . w 4.oXoX+X[.].k.q.0.y.].oXoX+X+X[.&.$   9 Y.+X+X+X+X+XY.0           o u X . . O = : ; ",
"X X X X X X X 3 4.oXoXoX[.].k.0.0.y.].+X+X+X+XoX;.$   9 Y.+X+X+X+X+XY.0           o i # . . X 8 8 8 ",
"E E E M M m b c 6.'.'.[.+X].k.q.9.y.].[.oXoX+X'.&.% . 9 Y.+X+X+XoXoXY.0       . O @ K M M M m c v b ",
"Z.Z.Z.A.k.h.i.+.M.7.8.Q.[.[.v.u.r.p.6.6.6.6.6.6.*.j 9 z E.+X+X^.Y.6.&.3     # t V Z g.z.j.z.g.O.' ' ",
"G.G.G.Z.A.A.i.O.o.H R L.[.[._._.^.>.0 3 3 3 3 9 D 5.Y.E.'.+X[.4.j 3 2 X   O V n.m.h.A.C.C.A.k.$.+.#.",
"F.Z.Z.A.z.h.i.#.o.z s -.'.+X[.+X[.*.$         X x Q.+XoX+X+X[.1.%         O C V.Z.A.z.z.z.z.a.$.#.#.",
"C.C.A.j.j.a.$.+.o.z i =.'.oXoX$X[.;.9 % 2 % 2 2 S ^.+X+XoXoXoX:.%         O C m.z.h.x.j.g.a.p.$.' #.",
"C.C.A.j.a.a.$.#.` Z i ..XXoX+X[.+XQ.4.1.1.1.1.1.Y.[.+X+X$XoXoX:.%         O V m.z.g.a.a.s.p.p.$.#.#.",
"j.j.h.p.p.p.#.' ` x p =.'.+X+X+X+X[.+X[.oXoXoXoX[.+X+X+X[.$X[.:.%         O s b.x.p.p.i.p.p.,.' ' O.",
"#.#.#.$.#.+.` ( ^ x p L.'.+X+X+X+X+X+X+X+X+X+X+X+X+X+X+X[.[.oX1.%         O a 2.%.%.$.#.$.#.+._ / ( ",
"+.+.+.+.+.' _ / Q x i U |.OX%XoX+X+X+X+X+X+X+X+X+X+X+X[.Q.M.6.} +     * > y Z o.#.O.O.+.' +.' ( / / ",
"~ W W W W E M n b k q p P L.>X%X[.+X+X+X+X+X+X+X+X+X+X'.| 0 3 < .   o d d Z I ] E W W ~ ~ ~ F m c c ",
"+ + + + + + + + + - > > % V ;X$X+X+X+X+X+X+X+X+X+X[.+X'.S +     O   o d u - @ + + @ + + + + + + + + ",
"                  + ; : * d :X$X+X+X+X+X+X+X+X+X+X+X+X'.S .         o a > O                         "
};
