/* XPM */
static char *exit2[] = {
/* columns rows colors chars-per-pixel */
"50 50 142 2 ",
"   c #151516",
".  c #1B1815",
"X  c #161718",
"o  c #171818",
"O  c #191818",
"+  c #261E17",
"@  c #281F17",
"#  c #211C18",
"$  c #2C2117",
"%  c #2C241C",
"&  c #332417",
"*  c #392716",
"=  c #3F2A16",
"-  c #3E2C1C",
";  c #232323",
":  c #2A2724",
">  c #2E2E2E",
",  c #302D2A",
"<  c #3A352F",
"1  c #333333",
"2  c #393939",
"3  c #432B16",
"4  c #482E16",
"5  c #4C3015",
"6  c #4F3218",
"7  c #553415",
"8  c #5A3615",
"9  c #653B14",
"0  c #6F4014",
"q  c #734214",
"w  c #7D4613",
"e  c #7D4817",
"r  c #49423B",
"t  c #414142",
"y  c #4B4A4A",
"u  c #5D544C",
"i  c #535353",
"p  c #5D5D5E",
"a  c #615649",
"s  c #785F48",
"d  c #626262",
"f  c #696766",
"g  c #6C6C6C",
"h  c #75716D",
"j  c #737373",
"k  c #7B7B7C",
"l  c #9D530F",
"z  c #864A13",
"x  c #8D4D12",
"c  c #904F12",
"v  c #965112",
"b  c #9A5312",
"n  c #AA590E",
"m  c #A15611",
"M  c #A65811",
"N  c #A95A11",
"B  c #B25E11",
"V  c #BD620F",
"C  c #B76010",
"Z  c #BD6310",
"A  c #BF6817",
"S  c #BF6919",
"D  c #A36226",
"F  c #B06927",
"G  c #A96F3A",
"H  c #B7783E",
"J  c #C0640F",
"K  c #C06510",
"L  c #C26815",
"P  c #C16C1D",
"I  c #C36F20",
"U  c #C67426",
"Y  c #C5742A",
"T  c #C9792D",
"R  c #C57830",
"E  c #806D58",
"W  c #957452",
"Q  c #B87A41",
"!  c #857562",
"~  c #907F6A",
"^  c #CF843D",
"/  c #9B8062",
"(  c #92806B",
")  c #A49179",
"_  c #C48041",
"`  c #CC8644",
"'  c #CC894B",
"]  c #D48E4A",
"[  c #D5904C",
"{  c #DA9A5A",
"}  c #DFA365",
"|  c #DBA975",
" . c #E1A96F",
".. c #E5AE74",
"X. c #E7B179",
"o. c #E9B37A",
"O. c #868686",
"+. c #B7A392",
"@. c #ACAEAF",
"#. c #B4B5B6",
"$. c #BABCBD",
"%. c #DFB084",
"&. c #C5AF9A",
"*. c #E9B680",
"=. c #EBB982",
"-. c #ECBC88",
";. c #E4BB95",
":. c #CCB6A2",
">. c #D5BDA7",
",. c #CCBDB0",
"<. c #F6CE9F",
"1. c #DBC1A9",
"2. c #CCC2BA",
"3. c #DFCDBC",
"4. c #E7CAAF",
"5. c #E9CCA9",
"6. c #F6D0A2",
"7. c #FAD1A1",
"8. c #FBD7AC",
"9. c #E6CCB3",
"0. c #EACDB2",
"q. c #EFD5BC",
"w. c #FEDDB4",
"e. c #FFE1B8",
"r. c #C4C4C4",
"t. c #CBCCCE",
"y. c #D1CECB",
"u. c #DDD2C9",
"i. c #CFD1D2",
"p. c #D4D5D5",
"a. c #EEDAC7",
"s. c #F1DCCA",
"d. c #E3DFDC",
"f. c #EFE4D9",
"g. c #F6E4D4",
"h. c #F6EADF",
"j. c #E6E6E6",
"k. c #FEF2E7",
"l. c #F5F1ED",
"z. c #FDFAF5",
"x. c #F7F8F9",
"c. c #FEFFFF",
/* pixels */
"c.c.r.O O O o o   O o O o O O X O o o   o o o o o o o o o o o o o o o o o o o o o o o o o X O r.c.c.",
"j j p O O + q w w w w w * X O X     r ) ) / e w w w w w w w w w w w w w w w w w w w w q $ X O p j j ",
"    . $ $ 3 b N N N N N 3 O O : < < E 7.7.=.L K V N N M M N M N n M M M N M M M N Z J C 3 $ & o     ",
"O X = N B b & $ @ @ @ @ . O X ! 5.5.| P I P K K N = $ $ $ # # $ # @ @ $ $ @ $ # 3 C K V C N n = o o ",
"o X 3 Z Z N + X o o X o X O   ~ e.e.o.V V n q 0 9 # X o 7 9 9 9 9 9 9 9 9 5 X o $ 9 0 q C Z Z 3 X o ",
"O X 3 Z Z M + o o o o o O X   ~ e.e.X.V Z b O o o # # $ b V Z K J V J V J x @ # @ o   # M Z C 3 X o ",
"o X 3 C Z M + o o O O o O o   ~ e.e.X.V Z b O O $ c m m C V Z V V V V Z Z C m m z # o $ M Z Z 3 X o ",
"o X 3 C K M + o O o O O o O   ~ e.e.X.V K b . O $ n J V V V V ^ ] ] R V V Z K K b # X $ M Z C 3 X O ",
"O X 3 C Z M @ X O O o o X O   ~ e.e.X.Z Z b O o $ n K V Z Z V X.w.w.} Z Z S Z Z b $ o O M Z Z 3 X o ",
"o X 3 C K M @ o O O o o O O   ~ e.e.X.V Z b # o $ N Z Z Z Z V T ^ ^ { -.-.{ Z K b O o $ M Z Z 3 X o ",
"O X 3 C Z M @ X . o o o O o   ~ e.e.X.V K b # o $ N Z Z Z Z V U ^ T ..e.e.=.Z Z l $ X $ z b b * o o ",
"O o 3 Z V M @ O O o o o X X   ~ e.e.X.V Z b O o $ N V Z Z V V ..8.8.w.w.e.=.Z Z b O o X $ O . O o X ",
"O X 3 Z K M @ X O O O o O o   ~ e.e.X.V Z b O o $ N Z Z Z Z V X.e.e.e.w.e.=.Z Z b O O O o O o O o o ",
"o X 3 C Z M @ X O O O o o O   ~ e.e.X.V Z b # O $ N K V V Z V  .6.<.8.w.e.=.Z K m $ O O o o O o o o ",
"o X 3 C K M @ o O O o O O O   ~ e.e.X.V Z b . o $ N Z Z V V V P I P } e.e.=.Z K l # O O o o o o o o ",
"O X 3 C Z M @ X O O O o O o   ~ e.e.X.V Z b # o $ N Z V V V V ^ { { }  .} [ Z Z b # O O 8 9 8 $ o o ",
"O o 3 C Z M @ X O o O O O     ~ e.e.X.V Z b O o $ N Z Z P P P *.s.e...L P S V K l O O $ N K Z 3 X o ",
"O O 3 C V M @ o o O o o O X   ~ e.e.X.V Z b # o $ N V S 5.g.g.k.z.z.k.g.g.;.V K l $ X $ M Z Z = X O ",
"o X 3 Z K M @ X O o o O O o   ~ e.e.X.V K b . X $ N Z S +.$.#.#.$.#.#.#.#.) L K b $ X $ M Z Z 3 X o ",
"O X 3 C Z M @ o O O O o O O   ~ e.e.X.V Z b # o $ N L C - O O O O O O O O 6 L L b O X # M Z C 3 X o ",
"o X 3 C Z M @ o o O o O o O   ~ e.e.X.V V v # o , >.q.9.r   X o o O o O   u q.q.&.; X $ l Z Z = X O ",
"o X 3 C K M @ o O o o O O o   ~ e.e.X.V V l O o > $.i.t.t   O o O o O o   i t.i.@.; X # M Z C 3 X o ",
"O X 3 V Z M @ X o O O o o O   ~ e.e.X.V V b . O O ; ; ; O O o O o O O O X O ; ; ; O o $ M Z Z 3 X O ",
"O O 3 C V M @ X O O o O o X   ~ e.e.X.V K b O O O   o o O o O o O O O O O O . X o o o $ M Z Z 3 X o ",
"O X 3 Z K M $ X O o O o O O   ~ e.e.X.Z K b . o O o   . X O O O o o o . O O .   o O o + M K C 3 X o ",
"o X 3 C V M @ o O o o O O o   ~ e.e.X.Z K b O O           O O X o o o o O O       o X $ M K C 3 X o ",
"o X 3 C Z M @ X o O O o o O   ~ e.e.X.Z K b # O ; j k k >   O O O X O     2 k k f O O + M J Z 3 X o ",
"O X 3 C Z M @ X O o O O O o   ~ e.w.X.Z K v O   1 d.z.l.y   O o o O O .   d z.z.i.:   @ M Z C 3 X o ",
"O X 3 Z Z M @ o O O O o o X   ~ e.e.X.V Z b . o % H ` _ -                 6 ` ` G # X + M Z C 3 X o ",
"o X 3 C K M @ o O O o O o X   ~ e.e.X.Z Z b # o $ n V C s p p 1     2 p p s V V b @ o + M Z Z 3 X O ",
"O X 3 Z V M @ X O O o o o o   ~ e.e.X.V Z b O o $ N Z L a.c.c.g     O.c.c.4.Z K b # o + M K C 3 X o ",
"o X 3 C Z M @ X O O . o o o   ~ e.e.X.V K b #   $ N C S a.c.c.g     O.c.c.0.Z Z m # o + M K C 3 X O ",
"O X 3 C Z M $ X O o . O O O   ( e.e.X.V V b # O $ N Z P s.c.c.g     O.c.c.0.Z K b # X @ M Z C 3 X o ",
"o X 3 C Z M @ X O O o o O O   ~ e.e.X.V V b O o $ N V S s.c.c.g     O.c.c.0.Z Z b # X @ M Z C 3 X o ",
"o X 3 C Z M @ o o o o o o o   ~ e.e.X.V Z b O O $ n V L s.c.c.g     O.c.c.0.V V m # O @ N K Z 3 o O ",
"o X 3 Z Z M @ o o o o o O o   ~ e.e.X.V J b . O $ F Y R 3.j.j.d     k j.j.1.Y Y D # o @ v N M 3 O O ",
"o O 3 V Z M @ X O o o O o O   ~ e.e.X.V V b . X 1 u.h.f.p 1 2 ;     ; 2 1 h h.h.2.; O . $ $ $ # o . ",
"o X 3 C Z M @ X o O O o O o   ~ e.e.X.V K b # X 1 j.c.x.y     X .         d c.c.p.; o o o X o o o o ",
"o X 3 Z K M $ o O o o O O o   ~ e.e.X.V Z b # X > f.x.l.i O ; ; ; ; ; ; O f z.z.y.; o o o o o o o o ",
"o X 3 C V M @ X o o O O o X   ~ e.e.X.V Z b O o % Q ` ' ,.t.t.t.t.t.t.t.t.:.` ` Q $ o o o X X o o o ",
"O X 3 C Z M @ o o o O O O o   ~ e.e.X.V V b # O $ n V Z ;.q.q.q.q.q.q.q.q.%.V V c . X . 3 5 4 + o o ",
"O O 3 C Z M @ o o o O O o O   ~ e.e.X.V Z b O o $ N Z Z Z A A A S Z A A A Z V K b # X @ m C C 3 o o ",
"O X 3 Z K M @ X o . O O o o   ~ e.e.X.Z Z b O o $ N Z V Z Z Z V Z Z V Z V V Z K m # O @ M Z C 3 X o ",
"O X 3 C V M @ X o o O O O o   ~ e.e.X.Z J b . O $ N Z Z Z Z Z Z Z Z Z Z Z Z V K b # O @ M K C 3 X o ",
"X X 3 C J M @ X O o O o o o   ~ e.e.X.Z K b . X $ N J J Z Z K K V K K Z Z Z Z K m # o + M K C 3 X o ",
"O X 3 C Z M @ X X O o O O O   ~ e.e.X.Z K b O X # 8 9 9 9 9 9 9 9 9 9 9 9 9 9 9 7 O X + M Z C 3 X o ",
"o X 3 Z Z N & @ @ O o O O o   ~ e.e.X.Z Z b $ @ @ @ $ @ + + + + # @ @ @ + + + + + $ + & N K Z 3 X o ",
"o X 3 Z K Z N N m & X O o o   ( e.e.o.K K Z N N M M N M N M M N N N M M N N M M N M N N Z K Z 3 X X ",
"o . & w w w w w q $ O O O O   a ) ) W w w w w w w w w w w w w w w w w w w w w w w z w w w w w & X X ",
"o o o o X X o X o o O O O o O X X o   O o o o o o o O o o O o O o o o o o o o o o o X X o X o o O o "
};
