/* XPM */
static char *mario[] = {
/* columns rows colors chars-per-pixel */
"50 50 227 2 ",
"   c #040200",
".  c #0A0603",
"X  c #0D0805",
"o  c #0E0C0C",
"O  c #110804",
"+  c #1B0D05",
"@  c #130E0B",
"#  c #180D08",
"$  c #1C130D",
"%  c #16100E",
"&  c #100F10",
"*  c #131314",
"=  c #1A1513",
"-  c #1E1916",
";  c #1B1A19",
":  c #171819",
">  c #0E1616",
",  c #261005",
"<  c #281309",
"1  c #321706",
"2  c #3A1C0B",
"3  c #341807",
"4  c #2A1D14",
"5  c #231E1B",
"6  c #251C18",
"7  c #3C210D",
"8  c #2C211A",
"9  c #24201F",
"0  c #3C2314",
"q  c #34241B",
"w  c #37281F",
"e  c #39251A",
"r  c #232221",
"t  c #2A2522",
"y  c #352922",
"u  c #3B2B21",
"i  c #372720",
"p  c #3E3128",
"a  c #43230A",
"s  c #4C260B",
"d  c #4E280D",
"f  c #522A0E",
"g  c #56280D",
"h  c #432B1C",
"j  c #462617",
"k  c #542D14",
"l  c #582F14",
"z  c #4D321F",
"x  c #5D3114",
"c  c #55341D",
"v  c #5B331B",
"b  c #732E05",
"n  c #682F17",
"m  c #6D3513",
"M  c #6A3A1C",
"N  c #653519",
"B  c #723714",
"V  c #743915",
"C  c #7C3C15",
"Z  c #743C1A",
"A  c #7C3E18",
"S  c #73300D",
"D  c #432E21",
"F  c #4C2F20",
"G  c #4B3221",
"H  c #4A3729",
"J  c #553521",
"K  c #563B29",
"L  c #413831",
"P  c #633B21",
"I  c #6A3E23",
"U  c #7D401A",
"Y  c #584434",
"T  c #7B4320",
"R  c #664D3B",
"E  c #714F36",
"W  c #785B42",
"Q  c #6B5944",
"!  c #8B2E08",
"~  c #853409",
"^  c #823E14",
"/  c #843517",
"(  c #953816",
")  c #912E14",
"_  c #BA3814",
"`  c #BE350F",
"'  c #DC2D04",
"]  c #CD360E",
"[  c #DC3107",
"{  c #DC350A",
"}  c #D9380E",
"|  c #CA3B14",
" . c #D73B12",
".. c #E13106",
"X. c #E13509",
"o. c #E1380D",
"O. c #EB3608",
"+. c #824219",
"@. c #8A451A",
"#. c #894419",
"$. c #944B1D",
"%. c #9C4D1D",
"&. c #9D501F",
"*. c #A14F1D",
"=. c #A6481C",
"-. c #A2511E",
";. c #AC551F",
":. c #B2571E",
">. c #B6581F",
",. c #BB5A1F",
"<. c #B44D19",
"1. c #894921",
"2. c #944D20",
"3. c #9B4F24",
"4. c #9A5324",
"5. c #965D36",
"6. c #825233",
"7. c #A55320",
"8. c #AD5620",
"9. c #AE5822",
"0. c #B15721",
"q. c #B45A22",
"w. c #BB5D22",
"e. c #B55A25",
"r. c #A15E31",
"t. c #B25029",
"y. c #98613A",
"u. c #BC6026",
"i. c #BB632B",
"p. c #B6622C",
"a. c #AA6538",
"s. c #BB6C38",
"d. c #B66836",
"f. c #C8481B",
"g. c #DC4317",
"h. c #E84C1D",
"j. c #C9611F",
"k. c #DA4923",
"l. c #C25E21",
"z. c #DB5727",
"x. c #DD5F37",
"c. c #E24E25",
"v. c #E45327",
"b. c #C46224",
"n. c #CB6625",
"m. c #CE6826",
"M. c #CD6929",
"N. c #CB6628",
"B. c #D46725",
"V. c #D26927",
"C. c #DB6A27",
"Z. c #DD6C28",
"A. c #D66A29",
"S. c #C46A34",
"D. c #D86A37",
"F. c #D37639",
"G. c #C1723C",
"H. c #E16C27",
"J. c #E36E28",
"K. c #E96F29",
"L. c #EF6D25",
"P. c #ED7129",
"I. c #E2712C",
"U. c #F3732A",
"Y. c #FA752B",
"T. c #E36234",
"R. c #E66B3A",
"E. c #E37637",
"W. c #8C6D51",
"Q. c #977354",
"!. c #89674B",
"~. c #B6754A",
"^. c #A8744C",
"/. c #CB7743",
"(. c #D37B44",
"). c #DE6944",
"_. c #E77A40",
"`. c #E9764E",
"'. c #B38A65",
"]. c #BC916A",
"[. c #AC8865",
"{. c #D98349",
"}. c #CB8E5C",
"|. c #C88A59",
" X c #D78A53",
".X c #CF814C",
"XX c #E68B4E",
"oX c #E78648",
"OX c #E78855",
"+X c #EE9257",
"@X c #F18E5B",
"#X c #C69267",
"$X c #D99765",
"%X c #D19E72",
"&X c #E49C67",
"*X c #E38268",
"=X c #D8A577",
"-X c #DFA069",
";X c #F3A36C",
":X c #E2A572",
">X c #EBAB75",
",X c #E4AD7C",
"<X c #EAA975",
"1X c #F2AB74",
"2X c #F2AE79",
"3X c #F9AD79",
"4X c #ECB17D",
"5X c #F4B37D",
"6X c #F8B07B",
"7X c #D5AE80",
"8X c #EDB381",
"9X c #EAB785",
"0X c #F2B682",
"qX c #F4B884",
"wX c #FBBB85",
"eX c #F3BE8A",
"rX c #FDBF89",
"tX c #F8B781",
"yX c #E6A896",
"uX c #EFB4A3",
"iX c #FDC28C",
"pX c #F5C38D",
"aX c #FDC590",
"sX c #FBC992",
"dX c #F6CB95",
"fX c #F4D4CB",
"gX c #FBF5F2",
/* pixels */
"U.J.J.J.J.J.J.J.J.J.J.J.J.J.J.J.J.C.b.8.7.N 5 ; v e.Y.Y.K.J.J.J.J.J.J.J.J.J.J.J.J.J.J.J.J.m.w.;.$.x ",
"U.J.J.J.J.J.J.J.J.J.J.J.I.J.J.J.J.V.u.9.8.N 5 ; v w.Y.U.K.J.J.J.J.J.J.J.J.J.J.J.J.J.J.I.J.n.u.;.$.z ",
"P.J.J.H.Z.Z.H.J.J.J.J.J.J.J.J.J.J.V.b.>.7.M 5 ; J e.U.U.J.J.Z.Z.Z.J.J.Z.J.J.J.Z.J.J.J.J.Z.n.w.:.$.c ",
"Z.V.V.m.V.V.m.m.m.m.m.m.V.V.m.m.m.b.u.;.7.Z q r J e.P.K.H.V.V.V.V.V.m.V.V.m.V.V.m.m.V.V.m.u.u.;.&.c ",
"Z.V.m.m.m.m.n.n.m.n.m.n.n.m.m.m.m.b.q.;.;.U y r K 9.Z.H.V.n.V.n.n.n.m.m.m.m.n.n.m.m.m.m.m.l.q.;.2.v ",
"V.m.b.b.n.n.n.n.n.n.n.n.n.b.n.n.m.b.u.q.4.2._ _ |  .g.g.z.N.M.b.b.b.b.n.n.n.n.b.b.m.b.m.m.w.:.;.2.c ",
"i.,.w.,.q.w.u.w.w.u.,.,.u.w.w.w.,.>.-.-.$.U A ] X.{ { { g.f.f.l.w.w.w.u.u.w.w.w.>.u.w.u.,.;.-.&.@.c ",
"q.:.>.0.0.9.:.9.0.:.0.:.0.9.:.>.>.-.&.$.$.c y n _ { X.{ { [ o.f.q.8.:.>.q.:.>.:.>.9.;.,.:.-.&.&.U c ",
"-.-.&.-.-.-.-.-.;.-.;.&.-.-.%.-.*.%.%.3.2.I h D ( o.X.{ X.X.X.X.g.;.%.*.-.-.;.%.-.*.*.*.-.%.@.#.U z ",
"s s s s s s s s k k k d s s s s g / ] |  . .| |  .{ o. .{ [ [ X.( g a f k k k s s s s s s a a a 7 9 ",
"  .   .   . X X % $ % X .   . .   + , < ~.:X1X1X6.I $X3X/.! C ! g O . @ = = @ .   .   .       . . @ ",
"+ O X O X   . X & * & @ O O X X @ H [.Q.8XsX9X!.= K 7XpX#XA ~..Xy.a + o > * o O O O O O O @ O O X + ",
"C V B S n g d 7 - * 8 x C C C U 5.#XsXeXwXiX,XW H Q.,X&X5.^ 4XdX|.+.s e = = 0 m ^ C V B B V V B V m ",
"C.B.B.n.u.;.$.T q ; w 7.H.P.v.F.<XpXeXrXpX9X=X9XdXdX>X5.b #.4XsX|.#.S x 5 6 v l.K.J.C.C.V.V.V.B.m.q.",
"U.J.J.C.j.w.;.U q = h 8.U.Y.L.E.;XrX0XqXpXW.u '.eXeX,Xa.b 2.>XsX|.^ b l 5 ; M n.Y.U.K.H.H.H.J.H.V.b.",
"H.H.C.V.u.:.-.U q : h 7.J.P.H.Z.F.5.t e y = o 8 8 R :X5X:X<XqXsX|.^ b n 5 5 P b.P.L.H.V.C.A.C.C.V.u.",
"Z.V.m.n.w.0.7.U y r G 7.H.J.C.V.b.A . . X X   . Y '.8XiXiXpXiX}.4.b b x y 9 c u.K.Z.V.n.n.V.V.m.n.w.",
"C.m.m.n.w.0.8.T u r H 4.C.I.A.V.N.3.c R R R R R ].pXrXrXiXrX X1.b #.+.v y 9 T w.J.Z.m.m.V.n.m.n.b.u.",
"n.b.b.w.0.9.4.T u r D 2.n.m.n.b.b.l./.>X0X0XeXpXpXrXwXrXiX:X#.C #.-.&.P 9 t Y :.m.m.b.j.b.b.b.b.w.0.",
"q.0.9.8.-.%.$.M w r D +.9.w.>.:.0.0.e.e.p./.:X0XrXrXiXrX0X=Xi.;.&.&.+.c t t c &.u.q.q.q.q.q.0.q.8.-.",
"8.;.;.;.-.%.@.M y r y U 8.;.8.;.8.8.0.8.$X5XtX8X,X,X,X,X4XwX4X~.1.$.+.l t t z @.;.;.:.:.8.7.8.;.;.*.",
"#.A A U Z m N k e 8 q v ^ +.U +.+.^ 1.#X4XrXrX0X5X5X5X5XqXiXiX>X^.U x h 9 9 u U U U U +.U U +.+.A V ",
"+ + + + + + + # = ; - $ + + + # # h Q.0XrXrXrXiXiXiXiXiXiXiXwXaX%XR 4 @ ; ; = + + + + + + + + + , 4 ",
"              X > : > .         8 W.pXiXiXiXiXrXwXiXiXwXwXiXwXwXdX,XR 9 ; ; o . .                 & ",
"2 3 3 1 1 3 3 7 h h e 7 1 3 , J '.iXrXrXrXrXiXrXwXiXiXiXwXiXwXiX5XiXqXQ.h h 0 1 1 1 1 3 1 1 , , < = ",
"w.0.8.;.0.0.;.0.q.;.p.u.:.:.:.i.$XpXrXrXrXrXrXrXiXwXwXwXiXwXiXwXiXiXiX X,.u.>.>.:.0.;.0.:.-.$.@.Z h ",
"K.J.J.Z.Z.J.H.J.Z.J.J.J.J.C.E.;XwXiXrXrX0XqXrXpXiXwXiXiXiXwX5XwX5XiXiX3X+XE.Z.J.J.J.H.H.H.n.q.:.$.k ",
"K.H.J.H.H.J.H.H.J.J.J.I.J.C.XX5XiXiXrXwX4X4XrXrXwXiXwXiXiXwX,X0XiXiXiXiX>XE.Z.J.H.Z.J.C.H.n.q.9.%.v ",
"Z.V.V.m.V.V.V.m.V.V.V.V.V.B.XXtXiXiXiXrX,X0XwXrXwXiXiXiXwXqX,X0XiX5XiXiX>XF.b.V.V.V.V.V.n.b.>.8.4.v ",
"C.m.n.m.n.m.m.m.m.m.n.n.n.j.{.0XiXrXrXrX,X4XrXrXiXiXwXwXiXwX=X9XiXiXiXiX1XF.j.V.m.n.n.m.n.b.w.;.$.J ",
"V.n.b.b.b.b.n.n.b.b.n.n.n.b.{.5XiXiXrX,X,X8XiXiX5X4XiXiXiXrX4X,X5XiXiXiX>XA.j.n.n.b.b.n.n.u.w.8.$.c ",
"u.u.w.w.w.w.w.w.,.u.w.,.u.:.(.qXaXwXwX5X`.D.E.R.x.T.R.R.T.T.x.&X5XiXiXaX>XS.,.u.u.w.w.w.w.0.&.&.@.G ",
",.:.:.:.:.:.0.q.q.0.q.9.0.:.G.$X0XiXrXrXT...' ' ..'  .).`.`. .@XrXrXwX8X Xp.:.0.w.0.:.0.0.;.%.$.+.G ",
"-.&.-.-.-.-.-.-.-.-.-.-.-.-.%.p.&XpXwX;Xv.[ { X.o.' c.uXgXfXx.`.tXwXrX(.-.-.-.-.-.-.-.-.-.$.@.#.Z G ",
"s s s s s s s f k k f f s s a M #XpX1Xc.o.o.} ] ] ' k.yXgXfXv.[ ).tXeX^.k k k s s s s s s a a a a 4 ",
". .     . .   . % = $ X .     . 4 W.3Xg.o.( j i ) { { k.x.x.{ ' `.%XQ : = = @ .     . . . .   .   o ",
"O O O O . . O X o * @ O O O O . + N T.} O.! 4 ; ) { o.[ ....X.[ h.f.j . * * o o O O O O O O O O @ $ ",
"C V B m x x f 7 - : 4 k V ^ C B V #.| ' X.` ( ^ =.f.f.f._ | [ [ ..] B 4 = = 0 m C C B B B B B B B m ",
"H.C.B.n.,.;.*.V 8 : h 3.J.J.C.C.C.D.F.z.c.c.z.h.z.V.V.M.D.F.z.c.v.c.=.k 6 ; n w.K.J.A.B.B.C.B.B.n.w.",
"U.J.K.C.j.>.*.A q ; h 9.L.Y.L.H.I.+XrXwXwXwX2X_.A.T.J.J.XXrXwXwXrX1X^.l 5 ; P z.Y.U.L.J.J.H.H.H.C.b.",
"H.Z.C.V.u.0.7.T i ; h 7.J.U.J.C.A.@XiXrXrXiX5XoXV.C.C.A.XXrXrXrXaX2Xd.v 5 5 P M.L.K.H.Z.C.C.V.V.M.b.",
"Z.V.m.b.l.q.8.U y r D 7.Z.J.A.n.V. XiXrXiXiX6XF.n.V.n.M.XXiXiXrXaX1X^.v t t P w.J.J.A.V.n.V.n.n.n.w.",
"C.m.M.n.w.;.7.T y r G 7.C.J.B.V.{.1XiXwXwXiX2X(.n.m.n.n. XiXrXrXrXtX}.E t t P e.J.Z.B.V.n.n.n.n.b.w.",
"n.b.b.b.0.;.7.U w r D 2.N.m.m.{.4XiXrXiXiXiX6XF.l.b.l.b. XwXrXrXrXiXaX#XY t P e.M.N.b.b.b.b.l.b.u.0.",
",.0.q.0.-.%.$.M y r u T 0.>./.>XwXwXwXtXwXiX4XG.:.q.:.w..XrXqXtXtXtXqX9X[.L H 3.q.q.q.q.q.q.q.q.8.7.",
";.;.8.8.-.$.#.M w r u +.9.:.p.s.s.s.s.s.s.s.i.0.;.8.8.8.w.s.s.d.a.a.5.E p t J 2.8.:.8.0.8.0.0.8.;.%.",
"+.U U A m m m v 8 r q v C +.U C C ^ A C A A U +.^ U U U A C A B m m n j 9 r h B A ^ +.A U ^ A +.C B ",
"+ + + + + + + $ ; ; ; + + + + + + + + + + + + + + + + + + + + # O + @ = ; ; = + + + + + + + + + + # ",
"                = ; * X                                               @ : : o                       ",
"              o = ; = X                                               o * ; o                       "
};
