/* XPM */
static char *asd[] = {
/* columns rows colors chars-per-pixel */
"50 50 213 2 ",
"   c #050506",
".  c #1A0D0D",
"X  c #121819",
"o  c #0E1819",
"O  c #241313",
"+  c #2C1616",
"@  c #291B1B",
"#  c #331B1B",
"$  c #3B1E1E",
"%  c #321214",
"&  c #2A0306",
"*  c #041726",
"=  c #0E3A3E",
"-  c #1D3C3C",
";  c #172E2E",
":  c #2A292A",
">  c #332323",
",  c #3F2020",
"<  c #362B2B",
"1  c #3D2B2B",
"2  c #2D302F",
"3  c #2C3434",
"4  c #213C3C",
"5  c #283636",
"6  c #353333",
"7  c #3F3D3D",
"8  c #2B2F30",
"9  c #420E10",
"0  c #401112",
"q  c #591E18",
"w  c #631B1B",
"e  c #751819",
"r  c #442323",
"t  c #4A2626",
"y  c #412A2A",
"u  c #492728",
"i  c #532A2A",
"p  c #5A2D2D",
"a  c #552427",
"s  c #413535",
"d  c #483837",
"f  c #563434",
"g  c #582E32",
"h  c #782629",
"j  c #643333",
"k  c #6A3636",
"l  c #6E3939",
"z  c #693939",
"x  c #743B3B",
"c  c #7B3E3E",
"v  c #6B2E2F",
"b  c #56433C",
"n  c #051C44",
"m  c #011F5D",
"M  c #162B4A",
"N  c #07245B",
"B  c #1D3A4F",
"V  c #273F40",
"C  c #062564",
"Z  c #0C316B",
"A  c #0F367C",
"S  c #1B4346",
"D  c #1B5958",
"F  c #224444",
"G  c #244B4B",
"H  c #2A4D4D",
"J  c #294747",
"K  c #384A4A",
"L  c #255353",
"P  c #2B5353",
"I  c #2D5B5B",
"U  c #2A5B5B",
"Y  c #335D5C",
"T  c #3C5B5B",
"R  c #355454",
"E  c #24445F",
"W  c #30605F",
"Q  c #1A4465",
"!  c #2D5B69",
"~  c #254A60",
"^  c #1D6363",
"/  c #2C6464",
"(  c #296868",
")  c #336565",
"_  c #396363",
"`  c #356B6B",
"'  c #396D6C",
"]  c #366967",
"[  c #2F6F72",
"{  c #336576",
"}  c #347575",
"|  c #3B7475",
" . c #357B7B",
".. c #3E7B7B",
"X. c #267070",
"o. c #484647",
"O. c #485757",
"+. c #565758",
"@. c #7D4141",
"#. c #704B4B",
"$. c #665758",
"%. c #705A5A",
"&. c #436B6B",
"*. c #566668",
"=. c #447474",
"-. c #4C7374",
";. c #417C7C",
":. c #497D7C",
">. c #58797A",
",. c #596F71",
"<. c #6B6B6C",
"1. c #627374",
"2. c #747575",
"3. c #7C7C7C",
"4. c #7F7372",
"5. c #7E6064",
"6. c #9C1416",
"7. c #8A2518",
"8. c #902318",
"9. c #9F1C27",
"0. c #A21D27",
"q. c #983B3B",
"w. c #902528",
"e. c #A82325",
"r. c #B42C29",
"t. c #C62430",
"y. c #C62D25",
"u. c #9C3C46",
"i. c #834242",
"p. c #894646",
"a. c #8E4848",
"s. c #934B4B",
"d. c #9C4847",
"f. c #895353",
"g. c #9C4F50",
"h. c #AB4951",
"j. c #84605F",
"k. c #966A6A",
"l. c #837373",
"z. c #857D7C",
"x. c #D54D5A",
"c. c #C7515D",
"v. c #D35562",
"b. c #C55D67",
"n. c #42817F",
"m. c #093388",
"M. c #0D3B9A",
"N. c #0C3483",
"B. c #1B428A",
"V. c #1A4894",
"C. c #22528F",
"Z. c #3D7882",
"A. c #2D6493",
"S. c #1B4AA0",
"D. c #2457A5",
"F. c #2152B7",
"G. c #134DC4",
"H. c #1754D1",
"J. c #255CCD",
"K. c #2563E2",
"L. c #3B8080",
"P. c #448383",
"I. c #4B8484",
"U. c #468989",
"Y. c #4A8D8D",
"T. c #548787",
"R. c #4C9493",
"E. c #4F9999",
"W. c #4D9897",
"Q. c #519B9B",
"!. c #559796",
"~. c #638D8D",
"^. c #6A8D8D",
"/. c #689999",
"(. c #749696",
"). c #55A4A4",
"_. c #59ABAB",
"`. c #58A5A5",
"'. c #7CA7A7",
"]. c #69A3A3",
"[. c #838383",
"{. c #8B8B8B",
"}. c #838988",
"|. c #929393",
" X c #989C9C",
".X c #AD8F8E",
"XX c #ADA09A",
"oX c #8AA5A5",
"OX c #89ABAB",
"+X c #94AAAA",
"@X c #98B7B7",
"#X c #A3A3A3",
"$X c #ABADAD",
"%X c #B3B2B2",
"&X c #BDBDBD",
"*X c #C69A96",
"=X c #D3B3B1",
"-X c #B5C4C4",
";X c #C7C8C8",
":X c #CBD6D6",
">X c #D5DBDB",
",X c #DDDEDE",
"<X c #D5CDC2",
"1X c #E1D5CD",
"2X c #E9E5DF",
"3X c #DDE2E2",
"4X c #E4E6E5",
"5X c #E7EAEA",
"6X c #ECECEB",
"7X c #F4F5F5",
"8X c #FCFCFC",
"9X c #EBF0F0",
"0X c None",
/* pixels */
"0X0X0X0X0X0X0X0X0X0X0X0X0X0X0X0X0X0X0X0X0X0X0X0X0X0X0X0X0X0X0X0X0X0X0X0X0X0X0X0X0X0X0X0X0X0X0X0X0X0X",
"0X0X0X0X0X0X0X0X0X0X0X0X0X0X0X0X0X0X0X0X0X0X0X0X0X0X0X0X0X0X0X0X0X0X0X0X0X0X0X0X0X0X0X0X0X0X0X0X0X0X",
"0X0X0X0X0X0X0X0X0X0X0X0X0X0X0X0X0X0X0X0X0X0X0X0X0X0X0X0X0X0X0X0X0X0X0X0X0X0X0X0X0X0X0X0X0X0X0X0X0X0X",
"0X0X0X0X0X0X0X0X0X0X0X0X0X0X0X0X0X0X0X0X0X0X0X0X0X0X0X0X0X0X0X0X0X0X0X0X0X0X0X0X0X0X0X0X0X0X0X0X0X0X",
"0X0X0X0X0X0X0X0X0X0X0X0X0X0X0X0X0X0X0X0X0X0X0X0X0X0X0X0X0X0X0X0X0X0X0X0X0X0X0X0X0X0X0X0X0X0X0X0X0X0X",
"0X0X0X0X0X0X0X0X0X0X0X0X0X0X0X0X0X0X0X0X0X0X0X0X0X0X0X0X0X0X0X0X0X0X0X0X0X0X0X0X0X0X0X0X0X0X0X0X0X0X",
"0X0X0X0X0X0X0X0X0X0X0X0X0X0X0X0X  0X0X0X0X0X0X0X0Xr r r 0X0X0X0X0X0X0X0X0X0X0X0X0X0X0X0X0X0X0X0X0X0X",
"0X0X0X0X0X0X0X0X0X0X0X0X0X0X0X0XO 0X0Xi j l c @.c l l k c c x k $ 0X0X0X0X0X0X0X0X0X0X0X0X0X0X0X0X0X",
"0X0X0X0X0X0X0X0X0X0X0X0X0X0X0Xr i j x l x c i.i.i.i.i.i.c c l z u , O 0X0X0X0X0X0X0X0X0X0X0X0X0X0X0X",
"0X0X0X0X0X0X0X0X0X0X0X0XO t p k k l c @.q.@.i.i.i.i.i.i.c q.x @.x f $ O 0X0X0X0X0X0X0X0X0X0X0X0X0X0X",
"0X0X0X0X0X0X0X0X0X0X0X0X+ i x c x c @.@.@.@.i.p.i.p.a.s.p.d.a.s.a.q.k r + 0X0X0X0X0X0X0X0X0X0X0X0X0X",
"0X0X0X0X0X0X0X0X0X0X0X0X$ j p.i.x c p.p.@.p.s.i.i.s.s.s.s.a.p.i.c c x j # 0X0X0X0X0X0X0X0X0X0X0X0X0X",
"0X0X0X0X0X0X0X0X0X0X0X. # k i.c k j x x k i.i.l f q.c c @.k j j j j l k r O 0X0X0X0X0X0X0X0X0X0X0X0X",
"0X0X0X0X0X0X0X0X0X0X0X+ r j j j p r $ i i p j i r p i t p i r i i p j j r O 0X0X0X0X0X0X0X0X0X0X0X0X",
"0X0X0X0X0X0X0X0X0X0X0Xr i j j p i > : 6 1 > y 1 6 s 1 < s y : 6 < 1 p p $ 0X0X0X0X0X0X0X0X0X0X0X0X0X",
"0X0X0X0X0X0X0X0X0X0X0Xt p j p i r > H | Y H _ T =.;.T _ =.T _ ` Y K s r # 0X0X0X0X0X0X0X0X0X0X0X0X0X",
"0X0X0X0X0X0X0X0X0X0X0Xt p j g u > 3 _ E.Q.Y.Q.)._._.Q.E._.).Q.E.Y.n.K + . 0X0X0X0X0X0X0X0X0X0X0X0X0X",
"0X0X0X0X0X0X0X0X0X0X0X, i p i r 5 L Y U.Q.`._._._._._._.).).).).P...K 0X0X0X0X0X0X0X0X0X0X0X0X0X0X0X",
"0X0X0X0X0X0X0X0X0X0X0X# r p i , 3 I ) | Y.Q.`.)._._._.`.).)._.).U.;.R 3 0X0X0X0X0X0X0X0X0X0X0X0X0X0X",
"0X0X0X0X0X0X0X0X0X0X0X. + r t # ; Y :.~.OX@X'./.)._.).W.E.Q.).]./.R._ G P 0X0X0X0X0X0X0X0X0X0X0X0X0X",
"0X0X0X0X0X0X0X0X0X0X0Xo X @ > 6 I _ ^.:X7X7X3X@XR.).`.Y.Y.W.'.:X;X].` ` | ' 0X0X0X0X0X0X0X0X0X0X0X0X",
"0X0X0X0X0X0X0X0X0X0X- P ' Y 8 3 ` :.@X8X8X7X5X>X~.W.Q.E.E.W.@X9X7XOX&.I ..` F 0X0X0X0X0X0X0X0X0X0X0X",
"0X0X0X0X0X0X0X0X0X; I P.U.| G : ] :.oX7X7X6X6X:XT.!.W.E.W.R.'.>X4XoX=.Y | ] 0X0X0X0X0X0X0X0X0X0X0X0X",
"0X0X0X0X0X0X0X0X0XG ' P...| P - ] ;.>.-X5X5X3XoX:.Y.R.R.R.R.Y.].(.>.;./ I 0X0X0X0X0X0X0X0X0X0X0X0X0X",
"0X0X0X0X0X0X0X0X0XF ' P.| | ` P ) U.| =.^.(.>.;.U.U.I.T.I.n.I.U.P...) 4 0X0X0X0X0X0X0X0X0X0X0X0X0X0X",
"0X0X0X0X0X0X0X0X0X0XI ' n.| | ` ) | P.P...;...I.>.>.^.k.3.>.,.=.| H 0X0X0X0X0X0X0X0X0X0X0X0X0X0X0X0X",
"0X0X0X0X0X0X0X0X0X0X0XG G G 5 5 P ] ` ) ] ..,.5..X<X4X,X;XXX$.6 0X0X0X0X0X0X0X0X0X0X0X0X0X0X0X0X0X0X",
"0X0X0X0X0X0X0X0X0X0X0X0X0XO 0 w q a g f d f j k j.*X=Xb.b.g.0X0X0X0X0X0X0X0X0X0X0X0X0X0X0X0X0X0X0X0X",
"0X0X0X0X0X0X0X0X0X0X0X0X0X0Xe 0.e.8.0.r.r.r.8.7.h h.v.x.x.u.0X0X0X0X0X0X0X0X0X0X0X0X0X0X0X0X0X0X0X0X",
"0X0X0X0X0X0X0X0X0X0X0X0X0X9 w h h e 9.t.y.y.8.8.q h.c.v.h.0X0X0X0X0X0X0X0X0X0X0X0X0X0X0X0X0X0X0X0X0X",
"0X0X0X0X0X0X0X0X0X0X0X0X& % 7 &.O.h 0.t.t.r.b d 0X0X0X0X0X0X0X0X0X0X0X0X0X0X0X0X0X0X0X0X0X0X0X0X0X0X",
"0X0X0X0X0X0X0X0X0X0X0X0X8 3 R Z.I.+.k w.h k W ( ) 0XL V 0XF L J 0X0X0X0X0X0X0X0X0X0X0X0X0X0X0X0X0X0X",
"0X0X0X0X0X0X0X0X0X0X0X0XI ] ' ;.R.Y.T.*.T R ` ( }  .( ) } ) G S 0X0X0X0X0X0X0X0X0X0X0X0X0X0X0X0X0X0X",
"0X0X0X0X0X0X0X0X0X0X0XB ~ { { ! ' Z.U.Y.U.U.P.L / [  . .L.} L S 0X0X0X0X0X0X0X0X0X0X0X0X0X0X0X0X0X0X",
"0X0X0X0X0X0X0X0X0X0X0XN Z V.V.V.D.D.A.Z.Y.E.E.' L G ! ( ` ( G - 0X0X0X0X0X0X0X0X0X0X0X0X0X0X0X0X0X0X",
"0X0X0X0X0X0X0X0X0X0X0XN m.G.J.S.m.M.N.Q | R.E...H H 0X0X0XF - - 0X0X0X0X0X0X0X0X0X0X0X0X0X0X0X0X0X0X",
"0X0X0X0X0X0X0X0X0X0X0XC m.H.K.F.0XZ C A ! | | _ J G 0X0X0X0X0X0X0X0X0X0X0X0X0X0X0X0X0X0X0X0X0X0X0X0X",
"0X0X0X0X0X0X0X0X0X0X0XN m.G.K.J.0X0XN M.V.! S H 4 - 0X0X0X0X0X0X0X0X0X0X0X0X0X0X0X0X0X0X0X0X0X0X0X0X",
"0X0X0X0X0X0X0X0X0X0X0Xn C V.S.B.M 0Xn Z Z S X F 4 0X0X0X0X0X0X0X0X0X0X0X0X0X0X0X0X0X0X0X0X0X0X0X0X0X",
"0X0X0X0X0X0X0X0X0X0X0X0XM ! { E 0X0X* M D S   0X0X0X0X0X0X0X0X0X0X0X0X0X0X0X0X0X0X0X0X0X0X0X0X0X0X0X",
"0X0X0X0X0X0X0X0X0X0X0X0X] U.W.n.0X0X= D X./ 0X0X0X0X0X0X0X0X0X0X0X0X0X0X0X0X0X0X0X0X0X0X0X0X0X0X0X0X",
"0X0X0X0X0X0X0X0X0X0X0XH ' Q.R.0X0X0X= ^ X.D 0X0X0X0X0X0X0X0X0X0X0X0X0X0X0X0X0X0X0X0X0X0X0X0X0X0X0X0X",
"0X0X0X0X0X0X0X0X0X0X0X-.I.T.=.0X0XR L / U 0X0X0X0X0X0X0X0X0X0X0X0X0X0X0X0X0X0X0X0X0X0X0X0X0X0X0X0X0X",
"0X0X0X0X0X0X0X0X0X0Xl.z.}.1.+.0X0X+.<.*.O.0X0X0X0X0X0X0X0X0X0X0X0X0X0X0X0X0X0X0X0X0X0X0X0X0X0X0X0X0X",
"0X0X0X0X0X0X0X0X0X0Xg.d.f.l.|. X3.%.c #.<.3.[.0X0X0X0X0X0X0X0X0X0X0X0X0X0X0X0X0X0X0X0X0X0X0X0X0X0X0X",
"0X0X0X0X0X0X0X0X0Xg.e.6.k.;X7X8X4XXX#.l.%X;X;X%X2.0X0X0X0X0X0X0X0X0X0X0X0X0X0X0X0X0X0X0X0X0X0X0X0X0X",
"0X0X0X0X0X0X0X0X0Xq.8.f.%X>X,X4X6X>X X{.%X%X&X&X#X0X0X0X0X0X0X0X0X0X0X0X0X0X0X0X0X0X0X0X0X0X0X0X0X0X",
"0X0X0X0X0X0X0X0X6 l f.z. X#X#X#X$X$X[.$.[.[.{.{.[.o.0X0X0X0X0X0X0X0X0X0X0X0X0X0X0X0X0X0X0X0X0X0X0X0X",
"0X0X0X0X0X0X0X0Xo.<.|.|.|.|.|.|. XoXl.+.2.2.2.[.2.o.0X0X0X0X0X0X0X0X0X0X0X0X0X0X0X0X0X0X0X0X0X0X0X0X",
"0X0X0X0X0X0X0X0X0X0X0X0X0X0X0X0X0X0X0X0X0X0X0X0X0X0X0X0X0X0X0X0X0X0X0X0X0X0X0X0X0X0X0X0X0X0X0X0X0X0X"
};
